<?xml version="1.0" encoding="UTF-8"?>
<svg width="798px" height="156px" viewBox="0 0 798 156" version="1.1" xmlns="http://www.w3.org/2000/svg" xmlns:xlink="http://www.w3.org/1999/xlink">
    <!-- Generator: Sketch 55.2 (78181) - https://sketchapp.com -->
    <title>Group 128</title>
    <desc>Created with Sketch.</desc>
    <defs>
        <polygon id="path-1" points="2.73574782e-05 0.494 141.961315 0.494 141.961315 155.9997 2.73574782e-05 155.9997"></polygon>
        <polygon id="path-3" points="0 156.506 798.345 156.506 798.345 1 0 1"></polygon>
    </defs>
    <g id="Page-4" stroke="none" stroke-width="1" fill="none" fill-rule="evenodd">
        <g id="Group-128" transform="translate(0.000000, -1.000000)">
            <path d="M131.5866,101.0558 C131.4386,98.3448 129.5556,96.2568 126.8366,96.3938 C124.8936,96.4988 123.0816,97.6688 122.2526,99.5828 C113.1966,120.4878 93.7196,134.2148 70.9856,135.4098 C48.2446,134.2148 28.7746,120.4878 19.7186,99.5828 C18.8896,97.6688 17.0786,96.4988 15.1296,96.3938 C12.4116,96.2568 10.5266,98.3378 10.3876,101.0558 L9.2106,115.3228 C9.0656,118.0348 11.1486,120.3568 13.8706,120.4878 C15.8486,120.5988 16.9416,119.5088 17.8026,117.8618 C27.0806,130.4928 40.8586,139.5528 55.9846,143.6518 C61.1436,144.9458 63.6886,147.6458 63.6886,147.6458 L67.9416,151.4788 C68.8096,152.2518 69.8956,152.6488 70.9856,152.6488 C72.0726,152.6488 73.1556,152.2518 74.0226,151.4788 L78.2766,147.6458 C78.2766,147.6458 80.8336,144.9458 85.9796,143.6518 C101.1066,139.5528 114.8866,130.4928 124.1656,117.8618 C125.0326,119.5088 126.1156,120.5988 128.0976,120.4878 C130.8126,120.3568 132.9026,118.0348 132.7566,115.3228 L131.5866,101.0558 Z M70.9796,11.8238 C73.6636,11.8238 75.8396,13.9908 75.8396,16.6788 C75.8396,19.3478 73.6636,21.5198 70.9796,21.5198 C68.3046,21.5198 66.1246,19.3478 66.1246,16.6788 C66.1246,13.9908 68.3046,11.8238 70.9796,11.8238 L70.9796,11.8238 Z M70.9796,28.4808 C77.5026,28.4808 82.7906,23.1918 82.7906,16.6788 C82.7906,10.1458 77.5026,4.8578 70.9796,4.8578 C64.4566,4.8578 59.1686,10.1458 59.1686,16.6788 C59.1686,23.1918 64.4566,28.4808 70.9796,28.4808 L70.9796,28.4808 Z M137.0296,31.3898 L124.9706,19.3278 C123.4106,17.7678 121.0316,17.9218 119.6916,19.6748 L108.5956,34.1028 C106.2426,37.1608 106.5486,41.8918 109.2796,44.6218 L111.7326,47.0758 C114.4626,49.7988 119.1996,50.1088 122.2526,47.7618 L136.6856,36.6658 C138.4256,35.3218 138.5806,32.9518 137.0296,31.3898 L137.0296,31.3898 Z M30.2266,47.0758 L32.6816,44.6218 C35.4096,41.8918 35.7186,37.1608 33.3686,34.1028 L22.2736,19.6748 C20.9286,17.9218 18.5546,17.7678 17.0006,19.3278 L4.9386,31.3898 C3.3776,32.9518 3.5326,35.3218 5.2786,36.6658 L19.7116,47.7618 C22.7646,50.1088 27.5026,49.7988 30.2266,47.0758 L30.2266,47.0758 Z M70.9426,45.8058 C83.4646,45.8058 94.3266,52.9508 99.6506,63.3968 C95.1866,64.6288 81.9666,68.2938 80.6946,68.6788 C79.1626,69.1498 77.8176,69.4898 76.6416,69.7248 C75.4646,69.9658 74.4436,70.0958 73.5646,70.1028 C72.7446,70.1208 72.0726,70.0408 71.4996,69.8868 C70.9266,69.7248 70.4626,69.4948 70.0596,69.1988 L71.1116,75.0188 C71.7126,75.4708 72.3946,75.7868 72.9696,75.9228 C73.5436,76.0468 74.2206,76.1098 75.0506,76.0778 C75.9236,76.0348 76.9576,75.9048 78.1466,75.6628 C79.3416,75.4158 80.7036,75.0688 82.2576,74.6108 C83.6076,74.2078 98.0976,70.1838 101.9086,69.1238 C102.5896,71.5088 103.0076,74.0038 103.1186,76.5798 C97.7566,78.1158 85.2616,81.6938 84.0386,82.0538 C82.4746,82.5048 81.1066,82.8648 79.9146,83.1058 C78.7156,83.3598 77.6886,83.5088 76.8126,83.5638 C75.9826,83.6148 75.3076,83.5828 74.7406,83.4708 C74.1776,83.3658 73.7126,83.1928 73.3226,82.9698 C72.9266,82.7408 72.6016,82.4618 72.3106,82.1518 C72.0226,81.8428 71.7596,81.4898 71.4836,81.1368 C71.2396,80.8158 70.9796,80.4808 70.6916,80.1528 C70.3996,79.8188 70.0686,79.4898 69.6696,79.1808 C69.2676,78.8768 68.8026,78.5858 68.2296,78.3318 C67.6506,78.0658 66.9696,77.8428 66.1466,77.6818 C65.2116,77.4848 64.1336,77.3718 62.9136,77.3478 C61.6846,77.3228 60.3076,77.3788 58.7966,77.5268 C57.2706,77.6688 55.6016,77.9108 53.7876,78.2398 C51.9766,78.5608 49.3846,79.0508 47.3106,79.6078 L48.9236,87.1308 C51.0316,86.5738 53.4466,86.1158 55.2926,85.7748 C57.1246,85.4278 58.8146,85.1678 60.3636,84.9938 C61.8956,84.8218 63.2856,84.7278 64.5306,84.7158 C65.7566,84.7028 66.8396,84.7788 67.7836,84.9138 C68.5986,85.0438 69.2856,85.2178 69.8586,85.4338 C70.4346,85.6388 70.8966,85.8918 71.2956,86.1588 C71.6856,86.4128 72.0106,86.6978 72.2956,86.9878 C72.5736,87.2738 72.8246,87.5578 73.0636,87.8498 C73.3296,88.1538 73.5806,88.4558 73.8676,88.7218 C74.1526,88.9898 74.4686,89.2298 74.8586,89.4158 C75.2426,89.6148 75.7076,89.7498 76.2766,89.8238 C76.8456,89.9048 77.5246,89.9108 78.3506,89.8558 C79.2426,89.7748 80.2766,89.6148 81.4836,89.3548 C82.6916,89.0928 84.0786,88.7468 85.6636,88.2938 C86.8526,87.9598 97.4406,84.8838 102.7036,83.3478 C102.3636,85.3908 101.8316,87.3658 101.1256,89.2608 C99.5926,89.6938 94.5146,91.1438 92.7416,91.6938 C90.6666,92.3448 88.8276,92.8888 87.1956,93.3348 C85.5706,93.7818 84.1526,94.1338 82.9206,94.4008 C81.6816,94.6658 80.6206,94.8398 79.7226,94.9388 C78.8776,95.0258 78.1836,95.0318 77.6136,94.9828 C77.0386,94.9388 76.5776,94.8328 76.1906,94.6858 C75.8026,94.5358 75.4906,94.3378 75.2056,94.1158 C74.9206,93.8918 74.6756,93.6388 74.4186,93.3788 C74.1866,93.1438 73.9476,92.8888 73.6696,92.6658 C73.3916,92.4238 73.0756,92.1838 72.6786,91.9728 C72.2856,91.7498 71.8176,91.5578 71.2456,91.3908 C70.6606,91.2228 69.9796,91.0928 69.1496,91.0138 C68.1926,90.9208 67.0936,90.8948 65.8436,90.9518 C64.5736,90.9998 63.1626,91.1238 61.5956,91.3418 C60.0106,91.5388 58.2766,91.8238 56.3996,92.1898 C54.5056,92.5548 52.2516,92.9698 50.0906,93.5458 L51.7536,101.2488 C53.9546,100.6598 56.0346,100.2698 57.9476,99.8858 C59.8556,99.5088 61.6106,99.1988 63.2116,98.9568 C64.8026,98.7278 66.2276,98.5678 67.5086,98.4618 C68.7656,98.3748 69.8746,98.3568 70.8336,98.3938 C71.6636,98.4308 72.3506,98.5118 72.9296,98.6288 C73.4966,98.7468 73.9546,98.9018 74.3446,99.0628 C74.7226,99.2228 75.0316,99.4158 75.3106,99.6018 C75.5806,99.7988 75.8056,99.9918 76.0386,100.1838 C76.2826,100.3938 76.5246,100.5978 76.8026,100.7718 C77.0686,100.9518 77.3816,101.0998 77.7686,101.2118 C78.1466,101.3238 78.5986,101.3968 79.1806,101.4158 C79.7506,101.4338 80.4436,101.3968 81.2926,101.2798 C82.1986,101.1678 83.2706,100.9768 84.5246,100.7028 C85.7746,100.4308 87.2116,100.0848 88.8586,99.6388 C90.5126,99.1988 92.3886,98.6728 94.4996,98.0408 C95.0636,97.8738 95.8396,97.6388 96.6666,97.3848 C90.7846,105.1738 81.4526,110.2148 70.9426,110.2148 C53.1556,110.2148 38.7316,95.7928 38.7316,78.0038 C38.7316,60.2198 53.1556,45.8058 70.9426,45.8058 L70.9426,45.8058 Z M70.9426,123.6388 C96.1376,123.6388 116.5746,103.1988 116.5746,78.0038 C116.5746,52.8088 96.1376,32.3818 70.9426,32.3818 C45.7436,32.3818 25.3106,52.8088 25.3106,78.0038 C25.3106,103.1988 45.7436,123.6388 70.9426,123.6388 L70.9426,123.6388 Z M57.9356,73.9848 C59.4716,73.8298 60.8586,73.7688 62.0976,73.8058 C63.3296,73.8298 64.4186,73.9418 65.3626,74.1338 C66.1896,74.3068 66.8776,74.5238 67.4596,74.7848 C68.0386,75.0378 68.5146,75.3278 68.9236,75.6448 L67.2926,65.6818 C66.9796,65.2598 66.6356,64.8578 66.2206,64.4678 C65.8056,64.0658 65.3226,63.7008 64.7466,63.3658 C64.1526,63.0248 63.4646,62.7208 62.6416,62.4858 C61.7006,62.2018 60.6316,62.0038 59.4156,61.9108 C58.1966,61.8178 56.8396,61.8118 55.3416,61.9048 C53.8426,62.0038 52.2016,62.2018 50.4246,62.4928 C48.6416,62.7848 45.6946,63.3278 43.6606,63.8798 L46.3376,76.0728 C48.4306,75.5018 51.0446,75.0188 52.8776,74.6978 C54.7106,74.3688 56.3946,74.1208 57.9356,73.9848 L57.9356,73.9848 Z" id="Fill-1" fill="#FEFEFE"></path>
            <g id="Group-5" transform="translate(0.000000, 0.506000)">
                <mask id="mask-2" fill="white">
                    <use xlink:href="#path-1"></use>
                </mask>
                <g id="Clip-4"></g>
                <path d="M49.2732,70.9277 C50.3452,70.7167 51.3542,70.5317 52.2022,70.3827 C54.1062,70.0497 55.8802,69.7877 57.5582,69.6337 C58.9512,69.4977 60.2582,69.4297 61.4832,69.4297 C61.7222,69.4297 61.9612,69.4297 62.1832,69.4357 C62.8432,69.4537 63.4812,69.4907 64.0972,69.5477 L63.6512,66.8417 C63.6202,66.8167 63.5922,66.7807 63.5622,66.7537 C63.3662,66.5747 63.1302,66.3887 62.8152,66.2037 C62.4932,66.0177 62.1032,65.8387 61.5362,65.6777 C60.9052,65.4847 60.1032,65.3367 59.1062,65.2557 C58.5982,65.2187 58.0472,65.1947 57.4532,65.1947 C56.8712,65.1947 56.2522,65.2127 55.5892,65.2557 C54.2392,65.3437 52.7222,65.5227 51.0442,65.7947 C50.2892,65.9177 49.2922,66.0917 48.2582,66.2967 L49.2732,70.9277 Z M42.5922,77.4977 C42.5922,82.0917 43.6792,86.4197 45.6132,90.2477 L45.7442,90.2097 L43.6202,80.2897 L43.4342,80.3397 L42.6052,76.5747 C42.5952,76.8837 42.5922,77.1877 42.5922,77.4977 L42.5922,77.4977 Z M54.6942,96.0917 C55.5742,95.9117 56.4062,95.7507 57.1902,95.5967 C59.1562,95.2007 60.9762,94.8847 62.6422,94.6377 C63.1902,94.5567 63.7262,94.4817 64.2392,94.4147 C63.5742,94.4767 62.8562,94.5567 62.0912,94.6617 C60.5982,94.8537 58.9392,95.1197 57.1222,95.4737 C56.3382,95.6207 55.5092,95.7827 54.6602,95.9497 L54.6942,96.0917 Z M70.9392,105.8457 C73.6572,105.8457 76.2802,105.4607 78.7602,104.7547 C78.0442,104.7117 77.3602,104.6067 76.7262,104.4137 C75.9482,104.2037 75.2462,103.8637 74.6942,103.5037 C74.1682,103.1567 73.7942,102.8287 73.5642,102.6437 C73.3112,102.4267 73.1802,102.3217 73.0872,102.2527 C72.9882,102.1847 72.9362,102.1597 72.8092,102.1057 C72.6852,102.0497 72.4872,101.9807 72.1522,101.9127 C71.8242,101.8387 71.3292,101.7777 70.6612,101.7457 C70.4342,101.7337 70.1782,101.7267 69.9112,101.7267 C69.2892,101.7267 68.5862,101.7507 67.7872,101.8137 C66.6292,101.9007 65.2892,102.0547 63.7722,102.2727 C62.2822,102.4947 60.6422,102.7807 58.8402,103.1387 C62.5052,104.8787 66.6052,105.8457 70.9392,105.8457 L70.9392,105.8457 Z M70.9392,113.5667 C51.0192,113.5667 34.8772,97.4167 34.8742,77.4977 C34.8772,57.5837 51.0192,41.4357 70.9392,41.4357 L70.9392,45.2997 L70.9392,49.1567 C63.1002,49.1567 56.0412,52.3207 50.8962,57.4597 C50.6882,57.6707 50.4812,57.8877 50.2762,58.0987 C51.9792,57.8317 53.5862,57.6457 55.0942,57.5477 C55.9112,57.4907 56.6942,57.4727 57.4532,57.4727 C58.2392,57.4727 58.9952,57.4977 59.7192,57.5597 C61.1562,57.6777 62.4932,57.9007 63.7312,58.2717 C64.8282,58.5937 65.8122,59.0207 66.6762,59.5227 C67.5092,59.9987 68.2522,60.5567 68.8772,61.1567 C69.4932,61.7397 69.9852,62.3267 70.3812,62.8597 L70.9482,63.6157 L71.1252,64.6987 L72.3232,65.5727 C72.3662,65.5967 72.3692,65.6147 72.5052,65.6527 C72.6572,65.6897 72.9112,65.7397 73.3382,65.7397 L73.4972,65.7397 C74.0692,65.7267 74.8712,65.6407 75.8682,65.4427 C76.9052,65.2317 78.1372,64.9147 79.5582,64.4827 C79.9882,64.3587 81.0132,64.0607 82.5242,63.6407 C84.0162,63.2187 85.9272,62.6927 87.9422,62.1287 C89.8522,61.6037 91.8432,61.0457 93.6542,60.5447 C88.4812,53.6267 80.2392,49.1507 70.9392,49.1567 L70.9392,45.2997 L70.9392,41.4357 C84.9642,41.4357 97.1312,49.4427 103.0882,61.1387 L104.4962,63.8937 L104.5622,63.8807 L104.6612,64.2097 L105.2362,65.3497 L105.0012,65.4167 L105.6172,67.5527 C106.3822,70.2347 106.8462,73.0207 106.9702,75.9007 L107.0452,77.5667 L107.5282,77.4297 L106.5122,83.4797 C106.1282,85.7707 105.5332,87.9817 104.7442,90.1047 L104.6322,90.4027 L106.9202,89.6967 L99.7502,99.2067 C93.1782,107.9187 82.7042,113.5667 70.9422,113.5667 L70.9392,113.5667 Z M70.9802,28.0117 L70.9802,27.9747 L70.9802,24.8787 L70.9802,27.9747 L70.9802,28.0117 Z M27.4962,43.8377 L29.9542,41.3857 C30.6352,40.7167 31.0872,39.5837 31.081259,38.4197 C31.0842,37.4597 30.7872,36.5687 30.3012,35.9487 L19.4522,21.8317 L7.9412,33.3367 L22.0602,44.1907 C22.6852,44.6737 23.5772,44.9717 24.5292,44.9717 C25.6972,44.9717 26.8272,44.5187 27.4962,43.8377 L27.4962,43.8377 Z M111.6542,35.9487 C111.1712,36.5687 110.877141,37.4597 110.877141,38.4197 C110.8712,39.5837 111.3262,40.7167 112.0112,41.3857 L114.4632,43.8377 C115.1312,44.5187 116.2582,44.9717 117.4292,44.9717 C118.3852,44.9717 119.2802,44.6737 119.8992,44.1907 L134.0232,33.3367 L122.5122,21.8317 L111.6542,35.9487 Z M31.3972,47.7397 C31.3972,47.7397 31.3972,47.7437 31.4002,47.7397 L30.2272,46.5697 L31.3972,47.7397 Z M21.4522,77.4977 C21.4522,68.1917 24.0222,59.4797 28.4932,52.0477 C27.2112,52.4827 25.8672,52.6927 24.5292,52.6927 C22.0412,52.6927 19.4902,51.9487 17.3562,50.3147 L2.9262,39.2187 C1.0812,37.8197 -0.0158,35.6147 2.73574782e-05,33.3857 C-0.0088,31.4667 0.7902,29.5527 2.2082,28.1467 L14.2602,16.0977 C15.6602,14.6797 17.5862,13.8807 19.4992,13.8867 C21.7312,13.8747 23.9362,14.9707 25.3322,16.8107 L36.4252,31.2437 C38.0652,33.3797 38.8022,35.9247 38.8062,38.4197 C38.8022,38.9277 38.7742,39.4357 38.7102,39.9437 C45.1682,34.3957 53.0722,30.4817 61.7812,28.8527 C57.8582,26.0057 55.3112,21.3857 55.3042,16.1727 C55.3112,7.5037 62.3262,0.4937 70.9802,0.4937 C79.6392,0.4937 86.6512,7.5037 86.6542,16.1727 C86.6512,21.3917 84.0972,26.0167 80.1592,28.8657 C88.8832,30.5117 96.8002,34.4387 103.2552,40.0237 C103.1902,39.4847 103.1532,38.9587 103.1532,38.4197 C103.1532,35.9247 103.8982,33.3797 105.5402,31.2377 L116.6302,16.8157 C118.0292,14.9707 120.2332,13.8747 122.4602,13.8867 C124.3822,13.8807 126.2962,14.6797 127.6952,16.0917 L139.7572,28.1467 L137.0292,30.8837 L139.7572,28.1597 C141.1692,29.5527 141.9672,31.4667 141.961315,33.3857 C141.9742,35.6097 140.8812,37.8197 139.0392,39.2187 L124.6052,50.3147 C122.4692,51.9487 119.9212,52.6927 117.4292,52.6927 C116.0642,52.6927 114.6852,52.4637 113.3732,52.0117 C117.8532,59.4597 120.4322,68.1847 120.4382,77.4977 C120.4252,104.8287 98.2672,126.9907 70.9392,126.9957 L70.9392,123.1327 L70.9392,119.2697 C82.4872,119.2697 92.9022,114.6007 100.4722,107.0327 C108.0422,99.4667 112.7112,89.0467 112.7112,77.4977 C112.7112,65.9487 108.0422,55.5407 100.4722,47.9677 C92.9022,40.4017 82.4872,35.7327 70.9392,35.7327 C59.3972,35.7327 48.9762,40.4017 41.4092,47.9677 C33.8392,55.5407 29.1742,65.9487 29.1742,77.4977 C29.1742,89.0467 33.8392,99.4667 41.4092,107.0327 C48.9762,114.6007 59.3972,119.2697 70.9392,119.2697 L70.9392,123.1327 L70.9392,126.9957 C43.6112,126.9907 21.4562,104.8287 21.4522,77.4977 L21.4522,77.4977 Z M70.5242,148.0987 C70.6612,148.2227 70.8032,148.2727 70.9852,148.2797 C71.1562,148.2727 71.3042,148.2227 71.4402,148.0987 L75.6172,144.3477 C76.3472,143.6157 79.4222,140.8427 84.9702,139.4187 C99.2862,135.5467 112.3452,126.9347 121.0512,115.0647 L124.7072,110.0917 L127.5772,115.5597 C127.7162,115.8147 127.8342,116.0057 127.9122,116.1057 C127.9182,116.1177 127.9272,116.1227 127.9302,116.1297 L127.9402,116.1297 C128.4812,116.0857 128.9022,115.6157 128.8992,115.0767 L128.8992,115.0517 L127.7322,100.8657 L131.5862,100.5497 L135.4382,100.3407 L131.5862,100.5497 L127.7322,100.8657 L127.7322,100.8177 L127.7262,100.7547 C127.7012,100.2457 127.5282,99.9617 127.4312,99.8637 C127.3152,99.7707 127.3602,99.7637 127.0972,99.7397 L126.9822,99.7507 C126.4692,99.8077 126.0112,100.1117 125.7942,100.6137 C116.1962,122.8167 95.3732,137.5047 71.1902,138.7547 L70.9852,138.7747 L70.7842,138.7547 C46.5982,137.5107 25.7742,122.8167 16.1762,100.6137 C15.9512,100.0917 15.4592,99.7777 14.9202,99.7397 L14.8702,99.7397 C14.6102,99.7637 14.6502,99.7707 14.5362,99.8567 C14.4432,99.9617 14.2702,100.2457 14.2392,100.7477 L14.2392,100.8177 L13.0622,115.0647 L13.0622,115.0837 C13.0622,115.6207 13.4902,116.0987 14.0342,116.1297 C14.0412,116.1297 14.0462,116.1227 14.0462,116.1177 C14.1302,116.0057 14.2452,115.8257 14.3812,115.5597 L17.2542,110.0807 L20.9142,115.0647 C29.6162,126.9217 42.6422,135.5227 56.9422,139.4057 C62.5052,140.8117 65.5892,143.5977 66.3452,144.3337 L70.5242,148.0987 Z M70.9852,155.9997 C68.9822,155.9997 66.9512,155.2757 65.3632,153.8457 L60.9882,149.9067 L60.9052,149.8207 L60.9012,149.8147 C60.8672,149.7817 60.7992,149.7207 60.6972,149.6347 C60.4932,149.4547 60.1462,149.1837 59.6602,148.8667 C58.6782,148.2227 57.1492,147.4187 55.0442,146.8847 L55.0282,146.8847 L54.9822,146.8727 C40.4562,142.9417 27.1252,134.6807 17.4282,123.1157 C16.4182,123.5977 15.2542,123.8757 14.1272,123.8577 C13.9792,123.8577 13.8272,123.8507 13.6632,123.8457 C8.9792,123.5977 5.3442,119.7267 5.3412,115.0837 C5.3412,114.8907 5.3472,114.7427 5.3532,114.6067 L5.3592,114.5627 L6.5362,100.2287 C6.6662,98.1547 7.4462,96.1427 8.8892,94.5937 C10.3412,93.0157 12.5552,92.0057 14.8702,92.0175942 C15.0502,92.0175942 15.2052,92.0237 15.3382,92.0367 C18.6912,92.2037 21.8272,94.2407 23.2612,97.5477 C31.7502,117.0887 49.7872,129.8387 70.9852,131.0337 C92.1842,129.8387 110.2242,117.0887 118.7072,97.5347 C120.1342,94.2657 123.2432,92.2287 126.5772,92.0367 L126.7162,92.0367 L126.7352,92.0237 L126.7472,92.0237 C126.8832,92.0175942 127.0012,92.0175942 127.0972,92.0175942 C129.4142,92.0057 131.6272,93.0157 133.0762,94.6007 C134.5312,96.1597 135.3112,98.1917 135.4352,100.2837 L136.6112,114.5757 L136.6172,114.6497 C136.6172,114.7677 136.6242,114.9097 136.6242,115.0767 C136.6212,119.7267 132.9892,123.5977 128.3012,123.8457 L128.2652,123.8457 C128.1442,123.8507 128.0042,123.8577 127.8442,123.8577 C126.7142,123.8757 125.5492,123.5977 124.5432,123.1157 C114.8402,134.6807 101.5092,142.9417 86.9822,146.8727 L86.9202,146.8847 C83.9672,147.6277 82.1282,148.9287 81.3982,149.5297 C81.2022,149.6907 81.0912,149.7817 81.0602,149.8207 L80.9822,149.9067 L76.6052,153.8457 C75.0202,155.2697 73.0012,155.9997 71.0042,155.9997 L70.9852,155.9997 Z" id="Fill-3" fill="#FEFEFE" mask="url(#mask-2)"></path>
            </g>
            <path d="M103.3015,78.754 C103.3015,96.605 88.8305,111.075 70.9795,111.075 C53.1305,111.075 38.6545,96.605 38.6545,78.754 C38.6545,60.901 53.1305,46.431 70.9795,46.431 C88.8305,46.431 103.3015,60.901 103.3015,78.754" id="Fill-6" fill="#FEFEFE"></path>
            <path d="M122.7351,111.1437 C122.7351,125.0257 99.5651,136.2837 70.9801,136.2837 C42.3971,136.2837 19.2271,125.0257 19.2271,111.1437 C19.2271,97.2537 42.3971,85.9977 70.9801,85.9977 C99.5651,85.9977 122.7351,97.2537 122.7351,111.1437" id="Fill-8" fill="#FEFEFE"></path>
            <path d="M51.7468,101.2491 C53.9548,100.6601 56.0288,100.2701 57.9458,99.8861 C59.8558,99.5091 61.6078,99.1981 63.2118,98.9571 C64.8028,98.7281 66.2268,98.5671 67.5058,98.4621 C68.7658,98.3751 69.8738,98.3561 70.8278,98.3941 C71.6638,98.4311 72.3478,98.5121 72.9268,98.6291 C73.4908,98.7471 73.9548,98.9011 74.3448,99.0621 C74.7228,99.2231 75.0318,99.4161 75.3108,99.6021 C75.5798,99.7991 75.8058,99.9911 76.0348,100.1841 C76.2828,100.3941 76.5248,100.5981 76.8028,100.7711 C77.0688,100.9521 77.3818,101.1001 77.7658,101.2121 C78.1458,101.3231 78.5988,101.3961 79.1808,101.4161 C79.7498,101.4341 80.4378,101.3961 81.2918,101.2791 C82.1988,101.1681 83.2698,100.9771 84.5178,100.7031 C85.7748,100.4311 87.2118,100.0851 88.8588,99.6391 C90.5128,99.1981 92.3848,98.6731 94.4938,98.0411 C95.0638,97.8741 95.8368,97.6391 96.6638,97.3851 C90.7848,105.1741 81.4498,110.2151 70.9388,110.2151 C53.1528,110.2151 38.7308,95.7931 38.7308,78.0041 C38.7308,60.2201 53.1528,45.8061 70.9388,45.8061 C83.4628,45.8061 94.3198,52.9501 99.6488,63.3961 C95.1868,64.6291 81.9638,68.2941 80.6918,68.6791 C79.1628,69.1491 77.8178,69.4891 76.6418,69.7251 C75.4588,69.9661 74.4408,70.0961 73.5638,70.1031 C72.7448,70.1211 72.0728,70.0411 71.4988,69.8871 C70.9268,69.7251 70.4558,69.4951 70.0538,69.1981 L71.1118,75.0191 C71.7128,75.4711 72.3938,75.7871 72.9698,75.9231 C73.5398,76.0471 74.2178,76.1091 75.0478,76.0781 C75.9238,76.0341 76.9548,75.9041 78.1458,75.6631 C79.3348,75.4161 80.7038,75.0681 82.2578,74.6101 C83.6018,74.2081 98.0978,70.1841 101.9088,69.1241 C102.5898,71.5091 103.0078,74.0041 103.1128,76.5801 C97.7538,78.1151 85.2618,81.6931 84.0348,82.0541 C82.4688,82.5051 81.0998,82.8641 79.9118,83.1051 C78.7098,83.3591 77.6818,83.5091 76.8088,83.5631 C75.9818,83.6141 75.3078,83.5831 74.7408,83.4711 C74.1708,83.3651 73.7128,83.1921 73.3198,82.9701 C72.9268,82.7401 72.5988,82.4621 72.3108,82.1511 C72.0168,81.8431 71.7598,81.4891 71.4838,81.1371 C71.2358,80.8151 70.9798,80.4801 70.6918,80.1521 C70.3968,79.8181 70.0688,79.4891 69.6698,79.1811 C69.2678,78.8771 68.7968,78.5861 68.2268,78.3321 C67.6448,78.0651 66.9638,77.8431 66.1438,77.6821 C65.2088,77.4841 64.1338,77.3721 62.9138,77.3481 C61.6848,77.3221 60.3078,77.3791 58.7938,77.5261 C57.2668,77.6691 55.6008,77.9111 53.7878,78.2391 C51.9728,78.5611 49.3848,79.0511 47.3108,79.6071 L48.9238,87.1311 C51.0258,86.5731 53.4468,86.1151 55.2918,85.7741 C57.1248,85.4281 58.8148,85.1681 60.3638,84.9941 C61.8948,84.8211 63.2858,84.7281 64.5238,84.7161 C65.7568,84.7031 66.8338,84.7781 67.7808,84.9141 C68.5988,85.0441 69.2858,85.2181 69.8558,85.4341 C70.4338,85.6391 70.8958,85.8921 71.2918,86.1581 C71.6848,86.4131 72.0108,86.6971 72.2958,86.9871 C72.5738,87.2731 72.8248,87.5581 73.0598,87.8501 C73.3228,88.1531 73.5798,88.4561 73.8678,88.7221 C74.1528,88.9891 74.4688,89.2291 74.8588,89.4161 C75.2428,89.6141 75.7038,89.7501 76.2738,89.8231 C76.8458,89.9041 77.5208,89.9111 78.3508,89.8551 C79.2398,89.7741 80.2698,89.6141 81.4838,89.3541 C82.6918,89.0931 84.0788,88.7471 85.6638,88.2941 C86.8498,87.9601 97.4378,84.8841 102.7038,83.3481 C102.3638,85.3911 101.8308,87.3651 101.1248,89.2611 C99.5928,89.6931 94.5128,91.1441 92.7418,91.6931 C90.6668,92.3451 88.8278,92.8891 87.1958,93.3351 C85.5708,93.7811 84.1528,94.1341 82.9168,94.4001 C81.6798,94.6661 80.6208,94.8401 79.7228,94.9381 C78.8778,95.0251 78.1838,95.0311 77.6138,94.9821 C77.0348,94.9381 76.5778,94.8331 76.1868,94.6861 C75.8028,94.5361 75.4838,94.3381 75.2048,94.1151 C74.9208,93.8921 74.6728,93.6391 74.4188,93.3791 C74.1868,93.1441 73.9428,92.8891 73.6658,92.6661 C73.3878,92.4241 73.0688,92.1841 72.6788,91.9731 C72.2858,91.7501 71.8178,91.5581 71.2458,91.3911 C70.6608,91.2231 69.9758,91.0931 69.1498,91.0141 C68.1928,90.9211 67.0938,90.8951 65.8438,90.9511 C64.5738,91.0001 63.1558,91.1241 61.5928,91.3421 C60.0068,91.5391 58.2768,91.8231 56.3938,92.1891 C54.5058,92.5551 52.2518,92.9701 50.0908,93.5461 L51.7468,101.2491 Z M68.9208,75.6451 C68.5148,75.3281 68.0388,75.0381 67.4588,74.7841 C66.8768,74.5231 66.1868,74.3071 65.3628,74.1341 C64.4128,73.9411 63.3228,73.8301 62.0978,73.8061 C60.8518,73.7691 59.4648,73.8301 57.9358,73.9841 C56.3938,74.1211 54.7098,74.3691 52.8768,74.6971 C51.0448,75.0191 48.4308,75.5021 46.3378,76.0721 L43.6608,63.8801 C45.6948,63.3281 48.6358,62.7841 50.4188,62.4921 C52.1988,62.2011 53.8428,62.0041 55.3418,61.9041 C56.8398,61.8111 58.1968,61.8171 59.4158,61.9111 C60.6298,62.0041 61.6978,62.2011 62.6418,62.4851 C63.4648,62.7211 64.1488,63.0241 64.7408,63.3651 C65.3198,63.7001 65.8058,64.0651 66.2208,64.4681 C66.6358,64.8571 66.9798,65.2601 67.2858,65.6821 L68.9208,75.6451 Z M70.9388,32.3821 C96.1378,32.3821 116.5678,52.8091 116.5678,78.0041 C116.5678,103.1981 96.1378,123.6391 70.9388,123.6391 C45.7438,123.6391 25.3098,103.1981 25.3098,78.0041 C25.3098,52.8091 45.7438,32.3821 70.9388,32.3821 L70.9388,32.3821 Z" id="Fill-10" fill="#231F20"></path>
            <path d="M136.6858,36.6661 C138.4258,35.3211 138.5808,32.9511 137.0228,31.3901 L124.9668,19.3281 C123.4108,17.7681 121.0298,17.9221 119.6918,19.6751 L108.5928,34.1031 C106.2428,37.1611 106.5488,41.8921 109.2798,44.6221 L111.7328,47.0751 C114.4628,49.7991 119.1968,50.1081 122.2518,47.7621 L136.6858,36.6661 Z M5.2788,36.6661 C3.5328,35.3211 3.3778,32.9511 4.9358,31.3901 L16.9948,19.3281 C18.5548,17.7681 20.9268,17.9221 22.2698,19.6751 L33.3688,34.1031 C35.7158,37.1611 35.4068,41.8921 32.6818,44.6221 L30.2268,47.0751 C27.5018,49.7991 22.7648,50.1081 19.7068,47.7621 L5.2788,36.6661 Z M70.9798,4.8571 C77.5028,4.8571 82.7908,10.1451 82.7908,16.6791 C82.7908,23.1911 77.5028,28.4801 70.9798,28.4801 C64.4568,28.4801 59.1648,23.1911 59.1648,16.6791 C59.1648,10.1451 64.4568,4.8571 70.9798,4.8571 L70.9798,4.8571 Z M70.9798,11.8231 C73.6578,11.8231 75.8338,13.9901 75.8338,16.6791 C75.8338,19.3481 73.6578,21.5201 70.9798,21.5201 C68.2978,21.5201 66.1248,19.3481 66.1248,16.6791 C66.1248,13.9901 68.2978,11.8231 70.9798,11.8231 L70.9798,11.8231 Z M131.5808,101.0561 C131.4378,98.3451 129.5558,96.2571 126.8368,96.3941 L126.8338,96.3941 C124.8938,96.4991 123.0818,97.6691 122.2518,99.5831 C113.1968,120.4871 93.7198,134.2151 70.9858,135.4101 C48.2448,134.2151 28.7718,120.4871 19.7188,99.5831 C18.8898,97.6691 17.0748,96.4991 15.1268,96.3941 C12.4118,96.2571 10.5238,98.3381 10.3878,101.0561 L9.2108,115.3221 C9.0618,118.0351 11.1488,120.3561 13.8678,120.4871 C15.8488,120.5991 16.9388,119.5091 17.8028,117.8611 C27.0808,130.4931 40.8588,139.5531 55.9848,143.6511 C61.1368,144.9451 63.6858,147.6451 63.6858,147.6451 L67.9418,151.4791 C68.8098,152.2521 69.8928,152.6481 70.9858,152.6481 C72.0728,152.6481 73.1558,152.2521 74.0228,151.4791 L78.2768,147.6451 C78.2768,147.6451 80.8278,144.9451 85.9788,143.6511 C101.1028,139.5531 114.8868,130.4931 124.1598,117.8611 C125.0268,119.5091 126.1158,120.5991 128.0978,120.4871 C130.8128,120.3561 132.9028,118.0351 132.7568,115.3221 L131.5808,101.0561 Z" id="Fill-12" fill="#EC1D24"></path>
            <path d="M192.2297,33.1866 L186.8757,36.6226 C184.3727,32.2566 180.9097,30.0716 176.4877,30.0716 C173.7697,30.0716 171.4257,30.9516 169.4557,32.7086 C167.4827,34.4676 166.4987,36.7036 166.4987,39.4206 C166.4987,40.6476 166.7637,41.7676 167.2977,42.7776 C167.8287,43.7916 168.6547,44.6846 169.7737,45.4516 C170.8937,46.2256 171.8397,46.8266 172.6117,47.2546 C173.3827,47.6816 174.4897,48.2136 175.9277,48.8526 L179.9227,50.6106 C182.2137,51.6206 184.1057,52.5666 185.5977,53.4466 C187.0887,54.3256 188.5667,55.4156 190.0327,56.7206 C191.4977,58.0286 192.5897,59.5876 193.3087,61.3966 C194.0277,63.2106 194.3877,65.2596 194.3877,67.5506 C194.3877,72.7716 192.5497,77.1806 188.8737,80.7786 C185.1977,84.3746 180.7237,86.1706 175.4477,86.1706 C170.6537,86.1706 166.5637,84.7476 163.1817,81.8986 C159.7977,79.0436 157.6267,75.2796 156.6687,70.5856 L163.2217,68.7516 C163.6467,71.8916 164.9807,74.5426 167.2167,76.7036 C169.4557,78.8576 172.1447,79.9356 175.2887,79.9356 C178.5917,79.9356 181.4817,78.8086 183.9587,76.5426 C186.4377,74.2766 187.6747,71.4956 187.6747,68.1886 C187.6747,66.8576 187.4477,65.6196 186.9967,64.4746 C186.5427,63.3286 186.0377,62.4126 185.4777,61.7186 C184.9177,61.0246 184.0247,60.2826 182.8007,59.4776 C181.5747,58.6786 180.6157,58.1096 179.9227,57.7616 C179.2307,57.4156 178.1117,56.8946 176.5667,56.2016 L172.8907,54.6046 C168.6287,52.6856 165.3797,50.6106 163.1417,48.3746 C160.9047,46.1326 159.7847,43.0746 159.7847,39.1796 C159.7847,34.6526 161.4367,30.9626 164.7397,28.1156 C168.0427,25.2666 172.0127,23.8356 176.6467,23.8356 C180.0037,23.8356 183.0417,24.6526 185.7577,26.2756 C188.4737,27.9046 190.6317,30.2076 192.2297,33.1866" id="Fill-14" fill="#FEFEFE"></path>
            <polygon id="Fill-16" fill="#FEFEFE" points="211.2483 49.3282 242.0953 49.3282 242.0953 24.8772 248.8073 24.8772 248.8073 85.1312 242.0953 85.1312 242.0953 55.5632 211.2483 55.5632 211.2483 85.1312 204.5363 85.1312 204.5363 24.8772 211.2483 24.8772"></polygon>
            <path d="M307.1438,37.3849 C302.3498,32.5119 296.5158,30.0719 289.6438,30.0719 C282.7708,30.0719 276.9378,32.5119 272.1428,37.3849 C267.3478,42.2569 264.9508,48.1329 264.9508,55.0069 C264.9508,61.8229 267.3608,67.6879 272.1828,72.5849 C277.0028,77.4889 282.8238,79.9359 289.6438,79.9359 C296.4628,79.9359 302.2818,77.4889 307.1038,72.5849 C311.9258,67.6879 314.3358,61.8229 314.3358,55.0069 C314.3358,48.1329 311.9398,42.2569 307.1438,37.3849 M267.4678,32.9879 C273.6208,26.8879 281.0128,23.8359 289.6438,23.8359 C298.2738,23.8359 305.6658,26.8879 311.8188,32.9879 C317.9718,39.0859 321.0498,46.4549 321.0498,55.0879 C321.0498,63.7129 317.9718,71.0559 311.8188,77.0999 C305.6658,83.1499 298.2738,86.1709 289.6438,86.1709 C281.0128,86.1709 273.6208,83.1499 267.4678,77.0999 C261.3138,71.0559 258.2378,63.7129 258.2378,55.0879 C258.2378,46.4549 261.3138,39.0859 267.4678,32.9879" id="Fill-18" fill="#FEFEFE"></path>
            <path d="M336.8713,31.1124 L336.8713,52.5294 L341.3473,52.5294 C350.5103,52.5294 355.0913,48.9074 355.0913,41.6564 C355.0913,39.7434 354.7843,38.1154 354.1733,36.7844 C353.5593,35.4534 352.7863,34.4244 351.8553,33.7064 C350.9233,32.9874 349.7103,32.4304 348.2193,32.0274 C346.7253,31.6324 345.3423,31.3784 344.0633,31.2724 C342.7853,31.1674 341.2123,31.1124 339.3483,31.1124 L336.8713,31.1124 Z M336.8713,58.7584 L336.8713,85.1314 L330.1583,85.1314 L330.1583,24.8774 L340.0683,24.8774 C343.3703,24.8774 346.1933,25.0614 348.5393,25.4394 C350.8833,25.8114 353.0413,26.6904 355.0113,28.0714 C357.1953,29.6194 358.8743,31.6074 360.0473,34.0274 C361.2173,36.4554 361.8043,39.0494 361.8043,41.8184 C361.8043,47.2554 359.8863,51.5704 356.0493,54.7644 C352.8003,57.4274 348.0313,58.7584 341.7463,58.7584 L336.8713,58.7584 Z" id="Fill-20" fill="#FEFEFE"></path>
            <path d="M673.9045,82.6046 C674.2385,82.2766 674.6405,82.1156 675.1055,82.1156 C675.5765,82.1156 675.9745,82.2766 676.3135,82.6046 C676.6475,82.9256 676.8145,83.3226 676.8145,83.7926 C676.8145,84.2566 676.6475,84.6666 676.3135,85.0136 C675.9745,85.3546 675.5765,85.5266 675.1055,85.5266 C674.6405,85.5266 674.2385,85.3546 673.9045,85.0136 C673.5675,84.6666 673.3995,84.2566 673.3995,83.7926 C673.3995,83.3226 673.5675,82.9256 673.9045,82.6046" id="Fill-22" fill="#FEFEFE"></path>
            <path d="M673.9045,82.6046 C674.2385,82.2766 674.6405,82.1156 675.1055,82.1156 C675.5765,82.1156 675.9745,82.2766 676.3135,82.6046 C676.6475,82.9256 676.8145,83.3226 676.8145,83.7926 C676.8145,84.2566 676.6475,84.6666 676.3135,85.0136 C675.9745,85.3546 675.5765,85.5266 675.1055,85.5266 C674.6405,85.5266 674.2385,85.3546 673.9045,85.0136 C673.5675,84.6666 673.3995,84.2566 673.3995,83.7926 C673.3995,83.3226 673.5675,82.9256 673.9045,82.6046 Z" id="Stroke-24" stroke="#FEFEFE" stroke-width="0.793"></path>
            <path d="M699.6516,64.004 L699.6516,67.174 C697.6776,65.143 695.3406,64.127 692.6386,64.127 C690.0956,64.127 687.9176,65.068 686.0956,66.963 C684.2786,68.853 683.3696,71.075 683.3696,73.639 C683.3696,76.201 684.2826,78.424 686.1156,80.314 C687.9416,82.208 690.1396,83.15 692.6966,83.15 C695.3006,83.15 697.6166,82.134 699.6516,80.103 L699.6516,83.274 C697.5766,84.778 695.2926,85.526 692.7896,85.526 C689.5396,85.526 686.7276,84.375 684.3596,82.066 C681.9906,79.762 680.8086,76.983 680.8086,73.731 C680.8086,70.438 681.9816,67.62 684.3316,65.267 C686.6786,62.921 689.4956,61.75 692.7896,61.75 C695.3536,61.75 697.6376,62.499 699.6516,64.004" id="Fill-26" fill="#FEFEFE"></path>
            <path d="M699.6516,64.004 L699.6516,67.174 C697.6776,65.143 695.3406,64.127 692.6386,64.127 C690.0956,64.127 687.9176,65.068 686.0956,66.963 C684.2786,68.853 683.3696,71.075 683.3696,73.639 C683.3696,76.201 684.2826,78.424 686.1156,80.314 C687.9416,82.208 690.1396,83.15 692.6966,83.15 C695.3006,83.15 697.6166,82.134 699.6516,80.103 L699.6516,83.274 C697.5766,84.778 695.2926,85.526 692.7896,85.526 C689.5396,85.526 686.7276,84.375 684.3596,82.066 C681.9906,79.762 680.8086,76.983 680.8086,73.731 C680.8086,70.438 681.9816,67.62 684.3316,65.267 C686.6786,62.921 689.4956,61.75 692.7896,61.75 C695.3536,61.75 697.6376,62.499 699.6516,64.004 Z" id="Stroke-28" stroke="#FEFEFE" stroke-width="0.793"></path>
            <path d="M721.4777,66.9142 C719.6517,65.0562 717.4217,64.1272 714.8017,64.1272 C712.1797,64.1272 709.9547,65.0562 708.1237,66.9142 C706.2937,68.7772 705.3807,71.0182 705.3807,73.6392 C705.3807,76.2392 706.3007,78.4752 708.1397,80.3452 C709.9797,82.2152 712.2017,83.1492 714.8017,83.1492 C717.4037,83.1492 719.6267,82.2152 721.4647,80.3452 C723.3037,78.4752 724.2207,76.2392 724.2207,73.6392 C724.2207,71.0182 723.3107,68.7772 721.4777,66.9142 M706.3407,65.2352 C708.6917,62.9142 711.5087,61.7502 714.8017,61.7502 C718.0957,61.7502 720.9147,62.9142 723.2617,65.2352 C725.6107,67.5632 726.7847,70.3752 726.7847,73.6692 C726.7847,76.9632 725.6107,79.7622 723.2617,82.0652 C720.9147,84.3752 718.0957,85.5262 714.8017,85.5262 C711.5087,85.5262 708.6917,84.3752 706.3407,82.0652 C703.9947,79.7622 702.8217,76.9632 702.8217,73.6692 C702.8217,70.3752 703.9947,67.5632 706.3407,65.2352" id="Fill-30" fill="#FEFEFE"></path>
            <path d="M721.4777,66.9142 C719.6517,65.0562 717.4217,64.1272 714.8017,64.1272 C712.1797,64.1272 709.9547,65.0562 708.1237,66.9142 C706.2937,68.7772 705.3807,71.0182 705.3807,73.6392 C705.3807,76.2392 706.3007,78.4752 708.1397,80.3452 C709.9797,82.2152 712.2017,83.1492 714.8017,83.1492 C717.4037,83.1492 719.6267,82.2152 721.4647,80.3452 C723.3037,78.4752 724.2207,76.2392 724.2207,73.6392 C724.2207,71.0182 723.3107,68.7772 721.4777,66.9142 Z M706.3407,65.2352 C708.6917,62.9142 711.5087,61.7502 714.8017,61.7502 C718.0957,61.7502 720.9147,62.9142 723.2617,65.2352 C725.6107,67.5632 726.7847,70.3752 726.7847,73.6692 C726.7847,76.9632 725.6107,79.7622 723.2617,82.0652 C720.9147,84.3752 718.0957,85.5262 714.8017,85.5262 C711.5087,85.5262 708.6917,84.3752 706.3407,82.0652 C703.9947,79.7622 702.8217,76.9632 702.8217,73.6692 C702.8217,70.3752 703.9947,67.5632 706.3407,65.2352 Z" id="Stroke-32" stroke="#FEFEFE" stroke-width="0.793"></path>
            <polygon id="Fill-34" fill="#FEFEFE" points="728.5861 85.131 733.2491 60.833 741.6021 80.134 749.9851 60.833 754.6501 85.131 752.0281 85.131 749.0721 69.583 749.0111 69.583 741.6021 86.078 734.2241 69.583 734.1641 69.583 731.2051 85.131"></polygon>
            <polygon id="Stroke-36" stroke="#FEFEFE" stroke-width="0.793" points="728.5861 85.131 733.2491 60.833 741.6021 80.134 749.9851 60.833 754.6501 85.131 752.0281 85.131 749.0721 69.583 749.0111 69.583 741.6021 86.078 734.2241 69.583 734.1641 69.583 731.2051 85.131"></polygon>
            <path d="M758.7541,82.6046 C759.0881,82.2766 759.4911,82.1156 759.9551,82.1156 C760.4251,82.1156 760.8241,82.2766 761.1631,82.6046 C761.4961,82.9256 761.6631,83.3226 761.6631,83.7926 C761.6631,84.2566 761.4961,84.6666 761.1631,85.0136 C760.8241,85.3546 760.4251,85.5266 759.9551,85.5266 C759.4911,85.5266 759.0881,85.3546 758.7541,85.0136 C758.4151,84.6666 758.2481,84.2566 758.2481,83.7926 C758.2481,83.3226 758.4151,82.9256 758.7541,82.6046" id="Fill-38" fill="#FEFEFE"></path>
            <path d="M758.7541,82.6046 C759.0881,82.2766 759.4911,82.1156 759.9551,82.1156 C760.4251,82.1156 760.8241,82.2766 761.1631,82.6046 C761.4961,82.9256 761.6631,83.3226 761.6631,83.7926 C761.6631,84.2566 761.4961,84.6666 761.1631,85.0136 C760.8241,85.3546 760.4251,85.5266 759.9551,85.5266 C759.4911,85.5266 759.0881,85.3546 758.7541,85.0136 C758.4151,84.6666 758.2481,84.2566 758.2481,83.7926 C758.2481,83.3226 758.4151,82.9256 758.7541,82.6046 Z" id="Stroke-40" stroke="#FEFEFE" stroke-width="0.793"></path>
            <path d="M769.5285,74.462 L769.5285,82.754 L772.0915,82.754 C776.0125,82.754 777.9735,81.355 777.9735,78.549 C777.9735,75.823 775.9025,74.462 771.7575,74.462 L769.5285,74.462 Z M769.5285,64.524 L769.5285,72.264 L770.5065,72.264 C771.3595,72.264 772.0595,72.227 772.6085,72.147 C773.1565,72.066 773.7075,71.899 774.2555,71.656 C774.8025,71.416 775.2125,71.019 775.4755,70.468 C775.7375,69.917 775.8715,69.218 775.8715,68.362 C775.8715,66.777 775.4405,65.744 774.5735,65.254 C773.7135,64.765 772.3625,64.524 770.5365,64.524 L769.5285,64.524 Z M766.9695,85.131 L766.9695,62.147 L770.7475,62.147 C773.0445,62.147 774.9015,62.629 776.3135,63.608 C777.7265,64.585 778.4305,66.171 778.4305,68.362 C778.4305,70.356 777.6795,71.85 776.1775,72.846 C777.5155,73.174 778.5805,73.88 779.3595,74.983 C780.1445,76.078 780.5365,77.328 780.5365,78.728 C780.5365,80.908 779.7755,82.519 778.2485,83.564 C776.7225,84.61 774.7415,85.131 772.3005,85.131 L766.9695,85.131 Z" id="Fill-42" fill="#FEFEFE"></path>
            <path d="M769.5285,74.462 L769.5285,82.754 L772.0915,82.754 C776.0125,82.754 777.9735,81.355 777.9735,78.549 C777.9735,75.823 775.9025,74.462 771.7575,74.462 L769.5285,74.462 Z M769.5285,64.524 L769.5285,72.264 L770.5065,72.264 C771.3595,72.264 772.0595,72.227 772.6085,72.147 C773.1565,72.066 773.7075,71.899 774.2555,71.656 C774.8025,71.416 775.2125,71.019 775.4755,70.468 C775.7375,69.917 775.8715,69.218 775.8715,68.362 C775.8715,66.777 775.4405,65.744 774.5735,65.254 C773.7135,64.765 772.3625,64.524 770.5365,64.524 L769.5285,64.524 Z M766.9695,85.131 L766.9695,62.147 L770.7475,62.147 C773.0445,62.147 774.9015,62.629 776.3135,63.608 C777.7265,64.585 778.4305,66.171 778.4305,68.362 C778.4305,70.356 777.6795,71.85 776.1775,72.846 C777.5155,73.174 778.5805,73.88 779.3595,74.983 C780.1445,76.078 780.5365,77.328 780.5365,78.728 C780.5365,80.908 779.7755,82.519 778.2485,83.564 C776.7225,84.61 774.7415,85.131 772.3005,85.131 L766.9695,85.131 Z" id="Stroke-44" stroke="#FEFEFE" stroke-width="0.793"></path>
            <path d="M786.8469,64.5235 L786.8469,72.7845 L787.6389,72.7845 C788.4509,72.7845 789.1679,72.7345 789.7879,72.6285 C790.4079,72.5295 791.0169,72.3445 791.6179,72.0655 C792.2149,71.7935 792.6729,71.3725 792.9899,70.8025 C793.3049,70.2325 793.4589,69.5215 793.4589,68.6665 C793.4589,67.9355 793.3489,67.3105 793.1259,66.7955 C792.9019,66.2765 792.6289,65.8675 792.3019,65.5765 C791.9779,65.2795 791.5399,65.0505 790.9929,64.8885 C790.4449,64.7275 789.9179,64.6225 789.4229,64.5855 C788.9239,64.5425 788.3209,64.5235 787.6089,64.5235 L786.8469,64.5235 Z M786.8469,75.0385 L786.8469,85.1305 L784.2839,85.1305 L784.2839,62.1465 L787.6089,62.1465 C788.7849,62.1465 789.8439,62.2325 790.7789,62.4195 C791.7139,62.6045 792.5989,62.9145 793.4279,63.3655 C794.2639,63.8115 794.9019,64.4675 795.3509,65.3285 C795.7999,66.1955 796.0239,67.2485 796.0239,68.4875 C796.0239,70.2525 795.5029,71.7175 794.4689,72.8775 C793.4279,74.0345 792.0289,74.6835 790.2589,74.8275 L797.5769,85.1305 L794.4379,85.1305 L787.4849,75.0385 L786.8469,75.0385 Z" id="Fill-46" fill="#FEFEFE"></path>
            <path d="M786.8469,64.5235 L786.8469,72.7845 L787.6389,72.7845 C788.4509,72.7845 789.1679,72.7345 789.7879,72.6285 C790.4079,72.5295 791.0169,72.3445 791.6179,72.0655 C792.2149,71.7935 792.6729,71.3725 792.9899,70.8025 C793.3049,70.2325 793.4589,69.5215 793.4589,68.6665 C793.4589,67.9355 793.3489,67.3105 793.1259,66.7955 C792.9019,66.2765 792.6289,65.8675 792.3019,65.5765 C791.9779,65.2795 791.5399,65.0505 790.9929,64.8885 C790.4449,64.7275 789.9179,64.6225 789.4229,64.5855 C788.9239,64.5425 788.3209,64.5235 787.6089,64.5235 L786.8469,64.5235 Z M786.8469,75.0385 L786.8469,85.1305 L784.2839,85.1305 L784.2839,62.1465 L787.6089,62.1465 C788.7849,62.1465 789.8439,62.2325 790.7789,62.4195 C791.7139,62.6045 792.5989,62.9145 793.4279,63.3655 C794.2639,63.8115 794.9019,64.4675 795.3509,65.3285 C795.7999,66.1955 796.0239,67.2485 796.0239,68.4875 C796.0239,70.2525 795.5029,71.7175 794.4689,72.8775 C793.4279,74.0345 792.0289,74.6835 790.2589,74.8275 L797.5769,85.1305 L794.4379,85.1305 L787.4849,75.0385 L786.8469,75.0385 Z" id="Stroke-48" stroke="#FEFEFE" stroke-width="0.793"></path>
            <polygon id="Fill-50" fill="#FEFEFE" points="369.5456 24.3556 417.9176 24.3556 417.9176 43.7926 405.2396 43.2426 405.2396 84.1836 382.2296 84.1836 382.2296 43.2426 369.5456 43.7926"></polygon>
            <mask id="mask-4" fill="white">
                <use xlink:href="#path-3"></use>
            </mask>
            <g id="Clip-53"></g>
            <polygon id="Fill-52" fill="#FEFEFE" mask="url(#mask-4)" points="419.94 84.184 442.95 84.184 442.95 24.356 419.94 24.356"></polygon>
            <path d="M457.0598,24.3556 L480.7458,24.3556 L489.4788,55.7816 L490.0638,55.7816 C490.2868,54.4556 490.5158,53.1176 490.7348,51.7676 C490.9608,50.4236 491.2648,49.1056 491.6588,47.8426 L498.8008,24.3556 L522.2308,24.3556 L532.6468,84.1836 L510.3918,84.1836 L507.2808,51.4096 L506.8688,51.4096 C506.6358,52.4176 506.4118,53.4266 506.1908,54.4306 C505.9648,55.4336 505.6858,56.4126 505.3488,57.3596 L496.1978,84.1836 L482.7568,84.1836 L474.5278,58.8706 C474.1938,57.6076 473.8958,56.3556 473.6428,55.1426 C473.3948,53.9226 473.2088,52.6786 473.0978,51.4096 L472.3428,51.4096 C472.2308,52.6286 472.1378,53.8306 472.0538,55.0246 C471.9638,56.2146 471.8698,57.4206 471.7568,58.6286 L469.0668,84.1836 L446.8128,84.1836 L457.0598,24.3556 Z" id="Fill-54" fill="#FEFEFE" mask="url(#mask-4)"></path>
            <path d="M635.3898,43.0812 C633.5378,43.0812 631.8908,43.3902 630.4368,43.9972 C628.9758,44.6032 627.7438,45.4512 626.7398,46.5292 C625.7308,47.6202 624.9468,48.8572 624.3838,50.2572 C623.8268,51.6622 623.5478,53.1542 623.5478,54.7472 C623.5478,58.1842 624.6378,60.9572 626.8268,63.0752 C629.0058,65.1982 631.8648,66.2522 635.3898,66.2522 C638.9198,66.2522 641.7718,65.1982 643.9588,63.0752 C646.1398,60.9572 647.2288,58.1842 647.2288,54.7472 C647.2288,53.1542 646.9518,51.6622 646.3898,50.2572 C645.8288,48.8572 645.0458,47.6202 644.0348,46.5292 C643.0308,45.4512 641.7978,44.6032 640.3438,43.9972 C638.8878,43.3902 637.2358,43.0812 635.3898,43.0812 M635.3898,23.4022 C640.2048,23.4022 644.7408,24.1452 648.9938,25.6182 C653.2478,27.1052 656.9628,29.1912 660.1208,31.8922 C663.2858,34.5982 665.7918,37.8362 667.6378,41.6512 C669.4838,45.4582 670.4088,49.7192 670.4088,54.4312 C670.4088,59.2422 669.4838,63.5392 667.6378,67.3222 C665.7918,71.1052 663.2858,74.3182 660.1208,76.9632 C656.9628,79.6072 653.2478,81.6322 648.9938,83.0312 C644.7408,84.4312 640.2048,85.1372 635.3898,85.1372 C630.5728,85.1372 626.0398,84.4312 621.7838,83.0312 C617.5258,81.6322 613.8178,79.6072 610.6538,76.9632 C607.4898,74.3182 604.9878,71.1052 603.1358,67.3222 C601.2898,63.5392 600.3688,59.2422 600.3688,54.4312 C600.3688,49.7192 601.2898,45.4582 603.1358,41.6512 C604.9878,37.8362 607.4898,34.5982 610.6538,31.8922 C613.8178,29.1912 617.5258,27.1052 621.7838,25.6182 C626.0398,24.1452 630.5728,23.4022 635.3898,23.4022" id="Fill-55" fill="#FEFEFE" mask="url(#mask-4)"></path>
            <path d="M565.4016,62.5177 L569.5926,44.2697 L570.4356,44.2697 C570.6626,45.5457 570.8866,46.8207 571.1116,48.1217 C571.3336,49.4157 571.6126,50.6967 571.9496,51.9657 L574.6376,62.5177 L565.4016,62.5177 Z M584.9906,30.8577 L584.2626,28.9317 L555.4016,28.9317 L554.6956,30.8577 L535.0806,84.1887 L559.4326,84.1887 L561.2806,76.7217 L578.6716,76.7217 L580.7706,84.1887 L605.1236,84.1887 L584.9906,30.8577 Z" id="Fill-56" fill="#FEFEFE" mask="url(#mask-4)"></path>
            <polygon id="Fill-57" fill="#FEFEFE" mask="url(#mask-4)" points="582.5353 24.3556 557.0893 24.3556 556.1013 27.0126 583.5383 27.0126"></polygon>
            <path d="M167.0564,125.8243 L163.4754,117.2423 L159.8094,125.8243 L167.0564,125.8243 Z M167.9934,128.0413 L158.8444,128.0413 L156.2574,134.1213 L153.6424,134.1213 L163.5334,111.6703 L173.1654,134.1213 L170.5234,134.1213 L167.9934,128.0413 Z" id="Fill-58" fill="#FEFEFE" mask="url(#mask-4)"></path>
            <path d="M167.0564,125.8243 L163.4754,117.2423 L159.8094,125.8243 L167.0564,125.8243 Z M167.9934,128.0413 L158.8444,128.0413 L156.2574,134.1213 L153.6424,134.1213 L163.5334,111.6703 L173.1654,134.1213 L170.5234,134.1213 L167.9934,128.0413 Z" id="Stroke-59" stroke="#FEFEFE" stroke-width="0.793" mask="url(#mask-4)"></path>
            <polygon id="Fill-60" fill="#FEFEFE" mask="url(#mask-4)" points="186.6355 112.6905 186.6355 131.9055 192.5475 131.9055 192.5475 134.1215 184.2485 134.1215 184.2485 112.6905"></polygon>
            <polygon id="Stroke-61" stroke="#FEFEFE" stroke-width="0.793" mask="url(#mask-4)" points="186.6355 112.6905 186.6355 131.9055 192.5475 131.9055 192.5475 134.1215 184.2485 134.1215 184.2485 112.6905"></polygon>
            <path d="M211.216,117.1437 C209.511,115.4107 207.437,114.5427 204.993,114.5427 C202.549,114.5427 200.475,115.4107 198.77,117.1437 C197.064,118.8767 196.213,120.9637 196.213,123.4107 C196.213,125.8307 197.069,127.9177 198.784,129.6577 C200.498,131.4037 202.567,132.2707 204.993,132.2707 C207.419,132.2707 209.487,131.4037 211.202,129.6577 C212.917,127.9177 213.775,125.8307 213.775,123.4107 C213.775,120.9637 212.922,118.8767 211.216,117.1437 M197.108,115.5777 C199.295,113.4107 201.924,112.3257 204.993,112.3257 C208.063,112.3257 210.692,113.4107 212.879,115.5777 C215.067,117.7507 216.161,120.3637 216.161,123.4347 C216.161,126.5057 215.067,129.1127 212.879,131.2677 C210.692,133.4157 208.063,134.4867 204.993,134.4867 C201.924,134.4867 199.295,133.4157 197.108,131.2677 C194.918,129.1127 193.826,126.5057 193.826,123.4347 C193.826,120.3637 194.918,117.7507 197.108,115.5777" id="Fill-62" fill="#FEFEFE" mask="url(#mask-4)"></path>
            <path d="M211.216,117.1437 C209.511,115.4107 207.437,114.5427 204.993,114.5427 C202.549,114.5427 200.475,115.4107 198.77,117.1437 C197.064,118.8767 196.213,120.9637 196.213,123.4107 C196.213,125.8307 197.069,127.9177 198.784,129.6577 C200.498,131.4037 202.567,132.2707 204.993,132.2707 C207.419,132.2707 209.487,131.4037 211.202,129.6577 C212.917,127.9177 213.775,125.8307 213.775,123.4107 C213.775,120.9637 212.922,118.8767 211.216,117.1437 Z M197.108,115.5777 C199.295,113.4107 201.924,112.3257 204.993,112.3257 C208.063,112.3257 210.692,113.4107 212.879,115.5777 C215.067,117.7507 216.161,120.3637 216.161,123.4347 C216.161,126.5057 215.067,129.1127 212.879,131.2677 C210.692,133.4157 208.063,134.4867 204.993,134.4867 C201.924,134.4867 199.295,133.4157 197.108,131.2677 C194.918,129.1127 193.826,126.5057 193.826,123.4347 C193.826,120.3637 194.918,117.7507 197.108,115.5777 Z" id="Stroke-63" stroke="#FEFEFE" stroke-width="0.793" mask="url(#mask-4)"></path>
            <path d="M223.947,112.6905 L223.947,129.6575 C223.947,130.4195 223.933,131.0065 223.905,131.4345 C223.875,131.8615 223.781,132.3815 223.62,132.9945 C223.459,133.6145 223.209,134.1405 222.868,134.5745 C221.976,135.7515 220.745,136.3385 219.173,136.3385 C217.885,136.3385 216.615,135.8055 215.365,134.7475 L216.7,132.8955 C217.572,133.7125 218.416,134.1215 219.23,134.1215 C219.609,134.1215 219.936,134.0545 220.21,133.9225 C220.486,133.7875 220.702,133.5845 220.864,133.3105 C221.024,133.0385 221.157,132.7785 221.262,132.5305 C221.366,132.2835 221.438,131.9555 221.475,131.5455 C221.513,131.1435 221.536,130.8205 221.546,130.5985 C221.555,130.3695 221.56,130.0545 221.56,129.6575 L221.56,112.6905 L223.947,112.6905 Z" id="Fill-64" fill="#FEFEFE" mask="url(#mask-4)"></path>
            <path d="M223.947,112.6905 L223.947,129.6575 C223.947,130.4195 223.933,131.0065 223.905,131.4345 C223.875,131.8615 223.781,132.3815 223.62,132.9945 C223.459,133.6145 223.209,134.1405 222.868,134.5745 C221.976,135.7515 220.745,136.3385 219.173,136.3385 C217.885,136.3385 216.615,135.8055 215.365,134.7475 L216.7,132.8955 C217.572,133.7125 218.416,134.1215 219.23,134.1215 C219.609,134.1215 219.936,134.0545 220.21,133.9225 C220.486,133.7875 220.702,133.5845 220.864,133.3105 C221.024,133.0385 221.157,132.7785 221.262,132.5305 C221.366,132.2835 221.438,131.9555 221.475,131.5455 C221.513,131.1435 221.536,130.8205 221.546,130.5985 C221.555,130.3695 221.56,130.0545 221.56,129.6575 L221.56,112.6905 L223.947,112.6905 Z" id="Stroke-65" stroke="#FEFEFE" stroke-width="0.793" mask="url(#mask-4)"></path>
            <path d="M239.7468,125.8243 L236.1668,117.2423 L232.5008,125.8243 L239.7468,125.8243 Z M240.6848,128.0413 L231.5358,128.0413 L228.9478,134.1213 L226.3338,134.1213 L236.2238,111.6703 L245.8568,134.1213 L243.2148,134.1213 L240.6848,128.0413 Z" id="Fill-66" fill="#FEFEFE" mask="url(#mask-4)"></path>
            <path d="M239.7468,125.8243 L236.1668,117.2423 L232.5008,125.8243 L239.7468,125.8243 Z M240.6848,128.0413 L231.5358,128.0413 L228.9478,134.1213 L226.3338,134.1213 L236.2238,111.6703 L245.8568,134.1213 L243.2148,134.1213 L240.6848,128.0413 Z" id="Stroke-67" stroke="#FEFEFE" stroke-width="0.793" mask="url(#mask-4)"></path>
            <path d="M273.2507,117.1437 C271.5457,115.4107 269.4717,114.5427 267.0277,114.5427 C264.5837,114.5427 262.5087,115.4107 260.8047,117.1437 C259.0987,118.8767 258.2477,120.9637 258.2477,123.4107 C258.2477,125.8307 259.1037,127.9177 260.8187,129.6577 C262.5327,131.4037 264.6017,132.2707 267.0277,132.2707 C269.4537,132.2707 271.5217,131.4037 273.2367,129.6577 C274.9517,127.9177 275.8097,125.8307 275.8097,123.4107 C275.8097,120.9637 274.9567,118.8767 273.2507,117.1437 M259.1417,115.5777 C261.3297,113.4107 263.9587,112.3257 267.0277,112.3257 C270.0967,112.3257 272.7257,113.4107 274.9137,115.5777 C277.1027,117.7507 278.1967,120.3637 278.1967,123.4347 C278.1967,126.5057 277.1027,129.1127 274.9137,131.2677 C272.7257,133.4157 270.0967,134.4867 267.0277,134.4867 C263.9587,134.4867 261.3297,133.4157 259.1417,131.2677 C256.9527,129.1127 255.8607,126.5057 255.8607,123.4347 C255.8607,120.3637 256.9527,117.7507 259.1417,115.5777" id="Fill-68" fill="#FEFEFE" mask="url(#mask-4)"></path>
            <path d="M273.2507,117.1437 C271.5457,115.4107 269.4717,114.5427 267.0277,114.5427 C264.5837,114.5427 262.5087,115.4107 260.8047,117.1437 C259.0987,118.8767 258.2477,120.9637 258.2477,123.4107 C258.2477,125.8307 259.1037,127.9177 260.8187,129.6577 C262.5327,131.4037 264.6017,132.2707 267.0277,132.2707 C269.4537,132.2707 271.5217,131.4037 273.2367,129.6577 C274.9517,127.9177 275.8097,125.8307 275.8097,123.4107 C275.8097,120.9637 274.9567,118.8767 273.2507,117.1437 Z M259.1417,115.5777 C261.3297,113.4107 263.9587,112.3257 267.0277,112.3257 C270.0967,112.3257 272.7257,113.4107 274.9137,115.5777 C277.1027,117.7507 278.1967,120.3637 278.1967,123.4347 C278.1967,126.5057 277.1027,129.1127 274.9137,131.2677 C272.7257,133.4157 270.0967,134.4867 267.0277,134.4867 C263.9587,134.4867 261.3297,133.4157 259.1417,131.2677 C256.9527,129.1127 255.8607,126.5057 255.8607,123.4347 C255.8607,120.3637 256.9527,117.7507 259.1417,115.5777 Z" id="Stroke-69" stroke="#FEFEFE" stroke-width="0.793" mask="url(#mask-4)"></path>
            <polygon id="Fill-70" fill="#FEFEFE" mask="url(#mask-4)" points="291.1823 114.9083 283.8213 114.9083 283.8213 121.2733 290.9543 121.2733 290.9543 123.4893 283.8213 123.4893 283.8213 134.1213 281.4353 134.1213 281.4353 112.6903 291.1823 112.6903"></polygon>
            <polygon id="Stroke-71" stroke="#FEFEFE" stroke-width="0.793" mask="url(#mask-4)" points="291.1823 114.9083 283.8213 114.9083 283.8213 121.2733 290.9543 121.2733 290.9543 123.4893 283.8213 123.4893 283.8213 134.1213 281.4353 134.1213 281.4353 112.6903 291.1823 112.6903"></polygon>
            <polygon id="Fill-72" fill="#FEFEFE" mask="url(#mask-4)" points="295.076 134.121 297.463 134.121 297.463 112.69 295.076 112.69"></polygon>
            <polygon id="Stroke-73" stroke="#FEFEFE" stroke-width="0.793" mask="url(#mask-4)" points="295.076 134.121 297.463 134.121 297.463 112.69 295.076 112.69"></polygon>
            <path d="M318.1506,114.4249 L318.1506,117.3859 C316.3126,115.4889 314.1326,114.5429 311.6146,114.5429 C309.2466,114.5429 307.2126,115.4229 305.5196,117.1809 C303.8216,118.9459 302.9756,121.0199 302.9756,123.4099 C302.9756,125.7929 303.8276,127.8669 305.5316,129.6329 C307.2376,131.3909 309.2836,132.2709 311.6696,132.2709 C314.0956,132.2709 316.2546,131.3219 318.1506,129.4349 L318.1506,132.3879 C316.2166,133.7869 314.0866,134.4869 311.7556,134.4869 C308.7246,134.4869 306.1056,133.4159 303.8976,131.2679 C301.6916,129.1129 300.5886,126.5239 300.5886,123.4889 C300.5886,120.4249 301.6826,117.7929 303.8706,115.6079 C306.0596,113.4159 308.6876,112.3249 311.7556,112.3249 C314.1436,112.3249 316.2746,113.0259 318.1506,114.4249" id="Fill-74" fill="#FEFEFE" mask="url(#mask-4)"></path>
            <path d="M318.1506,114.4249 L318.1506,117.3859 C316.3126,115.4889 314.1326,114.5429 311.6146,114.5429 C309.2466,114.5429 307.2126,115.4229 305.5196,117.1809 C303.8216,118.9459 302.9756,121.0199 302.9756,123.4099 C302.9756,125.7929 303.8276,127.8669 305.5316,129.6329 C307.2376,131.3909 309.2836,132.2709 311.6696,132.2709 C314.0956,132.2709 316.2546,131.3219 318.1506,129.4349 L318.1506,132.3879 C316.2166,133.7869 314.0866,134.4869 311.7556,134.4869 C308.7246,134.4869 306.1056,133.4159 303.8976,131.2679 C301.6916,129.1129 300.5886,126.5239 300.5886,123.4889 C300.5886,120.4249 301.6826,117.7929 303.8706,115.6079 C306.0596,113.4159 308.6876,112.3249 311.7556,112.3249 C314.1436,112.3249 316.2746,113.0259 318.1506,114.4249 Z" id="Stroke-75" stroke="#FEFEFE" stroke-width="0.793" mask="url(#mask-4)"></path>
            <polygon id="Fill-76" fill="#FEFEFE" mask="url(#mask-4)" points="322.244 134.121 324.631 134.121 324.631 112.69 322.244 112.69"></polygon>
            <polygon id="Stroke-77" stroke="#FEFEFE" stroke-width="0.793" mask="url(#mask-4)" points="322.244 134.121 324.631 134.121 324.631 112.69 322.244 112.69"></polygon>
            <path d="M340.4016,125.8243 L336.8206,117.2423 L333.1556,125.8243 L340.4016,125.8243 Z M341.3396,128.0413 L332.1896,128.0413 L329.6036,134.1213 L326.9876,134.1213 L336.8776,111.6703 L346.5106,134.1213 L343.8696,134.1213 L341.3396,128.0413 Z" id="Fill-78" fill="#FEFEFE" mask="url(#mask-4)"></path>
            <path d="M340.4016,125.8243 L336.8206,117.2423 L333.1556,125.8243 L340.4016,125.8243 Z M341.3396,128.0413 L332.1896,128.0413 L329.6036,134.1213 L326.9876,134.1213 L336.8776,111.6703 L346.5106,134.1213 L343.8696,134.1213 L341.3396,128.0413 Z" id="Stroke-79" stroke="#FEFEFE" stroke-width="0.793" mask="url(#mask-4)"></path>
            <polygon id="Fill-80" fill="#FEFEFE" mask="url(#mask-4)" points="351.2278 112.6905 351.2278 131.9055 357.1408 131.9055 357.1408 134.1215 348.8408 134.1215 348.8408 112.6905"></polygon>
            <polygon id="Stroke-81" stroke="#FEFEFE" stroke-width="0.793" mask="url(#mask-4)" points="351.2278 112.6905 351.2278 131.9055 357.1408 131.9055 357.1408 134.1215 348.8408 134.1215 348.8408 112.6905"></polygon>
            <path d="M370.6389,131.9054 L372.3719,131.9054 C373.8269,131.9054 375.0939,131.7514 376.1639,131.4344 C377.2329,131.1244 378.2229,130.5364 379.1339,129.6884 C380.9139,128.0224 381.8059,125.9294 381.8059,123.4104 C381.8059,120.7534 380.8769,118.6174 379.0219,116.9824 C378.1129,116.1714 377.1319,115.6214 376.0819,115.3354 C375.0289,115.0514 373.7899,114.9084 372.3719,114.9084 L370.6389,114.9084 L370.6389,131.9054 Z M368.2499,134.1214 L368.2499,112.6904 L372.2849,112.6904 C374.0649,112.6904 375.6109,112.8714 376.9169,113.2364 C378.2229,113.5944 379.4649,114.2764 380.6389,115.2794 C383.0109,117.3234 384.1929,120.0414 384.1929,123.4344 C384.1929,126.6734 383.0289,129.3354 380.6969,131.4234 C379.5059,132.4814 378.2579,133.1994 376.9599,133.5644 C375.6599,133.9354 374.0839,134.1214 372.2299,134.1214 L368.2499,134.1214 Z" id="Fill-82" fill="#FEFEFE" mask="url(#mask-4)"></path>
            <path d="M370.6389,131.9054 L372.3719,131.9054 C373.8269,131.9054 375.0939,131.7514 376.1639,131.4344 C377.2329,131.1244 378.2229,130.5364 379.1339,129.6884 C380.9139,128.0224 381.8059,125.9294 381.8059,123.4104 C381.8059,120.7534 380.8769,118.6174 379.0219,116.9824 C378.1129,116.1714 377.1319,115.6214 376.0819,115.3354 C375.0289,115.0514 373.7899,114.9084 372.3719,114.9084 L370.6389,114.9084 L370.6389,131.9054 Z M368.2499,134.1214 L368.2499,112.6904 L372.2849,112.6904 C374.0649,112.6904 375.6109,112.8714 376.9169,113.2364 C378.2229,113.5944 379.4649,114.2764 380.6389,115.2794 C383.0109,117.3234 384.1929,120.0414 384.1929,123.4344 C384.1929,126.6734 383.0289,129.3354 380.6969,131.4234 C379.5059,132.4814 378.2579,133.1994 376.9599,133.5644 C375.6599,133.9354 374.0839,134.1214 372.2299,134.1214 L368.2499,134.1214 Z" id="Stroke-83" stroke="#FEFEFE" stroke-width="0.793" mask="url(#mask-4)"></path>
            <path d="M403.8274,117.1437 C402.1244,115.4107 400.0504,114.5427 397.6044,114.5427 C395.1584,114.5427 393.0844,115.4107 391.3824,117.1437 C389.6754,118.8767 388.8244,120.9637 388.8244,123.4107 C388.8244,125.8307 389.6794,127.9177 391.3934,129.6577 C393.1094,131.4037 395.1784,132.2707 397.6044,132.2707 C400.0324,132.2707 402.1004,131.4037 403.8144,129.6577 C405.5304,127.9177 406.3844,125.8307 406.3844,123.4107 C406.3844,120.9637 405.5324,118.8767 403.8274,117.1437 M389.7194,115.5777 C391.9084,113.4107 394.5334,112.3257 397.6044,112.3257 C400.6764,112.3257 403.3014,113.4107 405.4904,115.5777 C407.6804,117.7507 408.7754,120.3637 408.7754,123.4347 C408.7754,126.5057 407.6804,129.1127 405.4904,131.2677 C403.3014,133.4157 400.6764,134.4867 397.6044,134.4867 C394.5334,134.4867 391.9084,133.4157 389.7194,131.2677 C387.5304,129.1127 386.4364,126.5057 386.4364,123.4347 C386.4364,120.3637 387.5304,117.7507 389.7194,115.5777" id="Fill-84" fill="#FEFEFE" mask="url(#mask-4)"></path>
            <path d="M403.8274,117.1437 C402.1244,115.4107 400.0504,114.5427 397.6044,114.5427 C395.1584,114.5427 393.0844,115.4107 391.3824,117.1437 C389.6754,118.8767 388.8244,120.9637 388.8244,123.4107 C388.8244,125.8307 389.6794,127.9177 391.3934,129.6577 C393.1094,131.4037 395.1784,132.2707 397.6044,132.2707 C400.0324,132.2707 402.1004,131.4037 403.8144,129.6577 C405.5304,127.9177 406.3844,125.8307 406.3844,123.4107 C406.3844,120.9637 405.5324,118.8767 403.8274,117.1437 Z M389.7194,115.5777 C391.9084,113.4107 394.5334,112.3257 397.6044,112.3257 C400.6764,112.3257 403.3014,113.4107 405.4904,115.5777 C407.6804,117.7507 408.7754,120.3637 408.7754,123.4347 C408.7754,126.5057 407.6804,129.1127 405.4904,131.2677 C403.3014,133.4157 400.6764,134.4867 397.6044,134.4867 C394.5334,134.4867 391.9084,133.4157 389.7194,131.2677 C387.5304,129.1127 386.4364,126.5057 386.4364,123.4347 C386.4364,120.3637 387.5304,117.7507 389.7194,115.5777 Z" id="Stroke-85" stroke="#FEFEFE" stroke-width="0.793" mask="url(#mask-4)"></path>
            <path d="M437.1037,114.4249 L437.1037,117.3859 C435.2667,115.4889 433.0877,114.5429 430.5717,114.5429 C428.1997,114.5429 426.1677,115.4229 424.4717,117.1809 C422.7757,118.9459 421.9307,121.0199 421.9307,123.4099 C421.9307,125.7929 422.7827,127.8669 424.4877,129.6329 C426.1927,131.3909 428.2367,132.2709 430.6257,132.2709 C433.0507,132.2709 435.2087,131.3219 437.1037,129.4349 L437.1037,132.3879 C435.1717,133.7869 433.0417,134.4869 430.7097,134.4869 C427.6797,134.4869 425.0597,133.4159 422.8527,131.2679 C420.6457,129.1129 419.5427,126.5239 419.5427,123.4889 C419.5427,120.4249 420.6387,117.7929 422.8247,115.6079 C425.0137,113.4159 427.6427,112.3249 430.7097,112.3249 C433.0967,112.3249 435.2267,113.0259 437.1037,114.4249" id="Fill-86" fill="#FEFEFE" mask="url(#mask-4)"></path>
            <path d="M437.1037,114.4249 L437.1037,117.3859 C435.2667,115.4889 433.0877,114.5429 430.5717,114.5429 C428.1997,114.5429 426.1677,115.4229 424.4717,117.1809 C422.7757,118.9459 421.9307,121.0199 421.9307,123.4099 C421.9307,125.7929 422.7827,127.8669 424.4877,129.6329 C426.1927,131.3909 428.2367,132.2709 430.6257,132.2709 C433.0507,132.2709 435.2087,131.3219 437.1037,129.4349 L437.1037,132.3879 C435.1717,133.7869 433.0417,134.4869 430.7097,134.4869 C427.6797,134.4869 425.0597,133.4159 422.8527,131.2679 C420.6457,129.1129 419.5427,126.5239 419.5427,123.4889 C419.5427,120.4249 420.6387,117.7929 422.8247,115.6079 C425.0137,113.4159 427.6427,112.3249 430.7097,112.3249 C433.0967,112.3249 435.2267,113.0259 437.1037,114.4249 Z" id="Stroke-87" stroke="#FEFEFE" stroke-width="0.793" mask="url(#mask-4)"></path>
            <path d="M457.4514,117.1437 C455.7484,115.4107 453.6734,114.5427 451.2264,114.5427 C448.7844,114.5427 446.7104,115.4107 445.0054,117.1437 C443.3024,118.8767 442.4474,120.9637 442.4474,123.4107 C442.4474,125.8307 443.3044,127.9177 445.0194,129.6577 C446.7314,131.4037 448.8034,132.2707 451.2264,132.2707 C453.6544,132.2707 455.7224,131.4037 457.4384,129.6577 C459.1524,127.9177 460.0114,125.8307 460.0114,123.4107 C460.0114,120.9637 459.1594,118.8767 457.4514,117.1437 M443.3464,115.5777 C445.5304,113.4107 448.1594,112.3257 451.2264,112.3257 C454.2994,112.3257 456.9284,113.4107 459.1164,115.5777 C461.3024,117.7507 462.3974,120.3637 462.3974,123.4347 C462.3974,126.5057 461.3024,129.1127 459.1164,131.2677 C456.9284,133.4157 454.2994,134.4867 451.2264,134.4867 C448.1594,134.4867 445.5304,133.4157 443.3464,131.2677 C441.1524,129.1127 440.0624,126.5057 440.0624,123.4347 C440.0624,120.3637 441.1524,117.7507 443.3464,115.5777" id="Fill-88" fill="#FEFEFE" mask="url(#mask-4)"></path>
            <path d="M457.4514,117.1437 C455.7484,115.4107 453.6734,114.5427 451.2264,114.5427 C448.7844,114.5427 446.7104,115.4107 445.0054,117.1437 C443.3024,118.8767 442.4474,120.9637 442.4474,123.4107 C442.4474,125.8307 443.3044,127.9177 445.0194,129.6577 C446.7314,131.4037 448.8034,132.2707 451.2264,132.2707 C453.6544,132.2707 455.7224,131.4037 457.4384,129.6577 C459.1524,127.9177 460.0114,125.8307 460.0114,123.4107 C460.0114,120.9637 459.1594,118.8767 457.4514,117.1437 Z M443.3464,115.5777 C445.5304,113.4107 448.1594,112.3257 451.2264,112.3257 C454.2994,112.3257 456.9284,113.4107 459.1164,115.5777 C461.3024,117.7507 462.3974,120.3637 462.3974,123.4347 C462.3974,126.5057 461.3024,129.1127 459.1164,131.2677 C456.9284,133.4157 454.2994,134.4867 451.2264,134.4867 C448.1594,134.4867 445.5304,133.4157 443.3464,131.2677 C441.1524,129.1127 440.0624,126.5057 440.0624,123.4347 C440.0624,120.3637 441.1524,117.7507 443.3464,115.5777 Z" id="Stroke-89" stroke="#FEFEFE" stroke-width="0.793" mask="url(#mask-4)"></path>
            <path d="M468.0237,114.9083 L468.0237,122.6113 L468.7627,122.6113 C469.5177,122.6113 470.1867,122.5603 470.7667,122.4693 C471.3457,122.3763 471.9117,122.2023 472.4717,121.9423 C473.0297,121.6883 473.4567,121.2913 473.7487,120.7653 C474.0447,120.2323 474.1907,119.5703 474.1907,118.7713 C474.1907,118.0903 474.0857,117.5093 473.8777,117.0253 C473.6677,116.5433 473.4147,116.1653 473.1107,115.8913 C472.8067,115.6143 472.3977,115.4033 471.8897,115.2493 C471.3767,115.0993 470.8867,115.0073 470.4217,114.9703 C469.9587,114.9263 469.3947,114.9083 468.7317,114.9083 L468.0237,114.9083 Z M468.0237,124.7173 L468.0237,134.1213 L465.6357,134.1213 L465.6357,112.6903 L468.7317,112.6903 C469.8347,112.6903 470.8187,112.7783 471.6887,112.9523 C472.5587,113.1193 473.3827,113.4163 474.1627,113.8303 C474.9367,114.2463 475.5377,114.8573 475.9517,115.6633 C476.3677,116.4693 476.5787,117.4473 476.5787,118.6043 C476.5787,120.2523 476.0937,121.6143 475.1277,122.6973 C474.1627,123.7753 472.8557,124.3823 471.2057,124.5183 L478.0267,134.1213 L475.0977,134.1213 L468.6207,124.7173 L468.0237,124.7173 Z" id="Fill-90" fill="#FEFEFE" mask="url(#mask-4)"></path>
            <path d="M468.0237,114.9083 L468.0237,122.6113 L468.7627,122.6113 C469.5177,122.6113 470.1867,122.5603 470.7667,122.4693 C471.3457,122.3763 471.9117,122.2023 472.4717,121.9423 C473.0297,121.6883 473.4567,121.2913 473.7487,120.7653 C474.0447,120.2323 474.1907,119.5703 474.1907,118.7713 C474.1907,118.0903 474.0857,117.5093 473.8777,117.0253 C473.6677,116.5433 473.4147,116.1653 473.1107,115.8913 C472.8067,115.6143 472.3977,115.4033 471.8897,115.2493 C471.3767,115.0993 470.8867,115.0073 470.4217,114.9703 C469.9587,114.9263 469.3947,114.9083 468.7317,114.9083 L468.0237,114.9083 Z M468.0237,124.7173 L468.0237,134.1213 L465.6357,134.1213 L465.6357,112.6903 L468.7317,112.6903 C469.8347,112.6903 470.8187,112.7783 471.6887,112.9523 C472.5587,113.1193 473.3827,113.4163 474.1627,113.8303 C474.9367,114.2463 475.5377,114.8573 475.9517,115.6633 C476.3677,116.4693 476.5787,117.4473 476.5787,118.6043 C476.5787,120.2523 476.0937,121.6143 475.1277,122.6973 C474.1627,123.7753 472.8557,124.3823 471.2057,124.5183 L478.0267,134.1213 L475.0977,134.1213 L468.6207,124.7173 L468.0237,124.7173 Z" id="Stroke-91" stroke="#FEFEFE" stroke-width="0.793" mask="url(#mask-4)"></path>
            <polygon id="Fill-92" fill="#FEFEFE" mask="url(#mask-4)" points="481.095 134.121 483.482 134.121 483.482 112.69 481.095 112.69"></polygon>
            <polygon id="Stroke-93" stroke="#FEFEFE" stroke-width="0.793" mask="url(#mask-4)" points="481.095 134.121 483.482 134.121 483.482 112.69 481.095 112.69"></polygon>
            <polygon id="Fill-94" fill="#FEFEFE" mask="url(#mask-4)" points="487.9709 134.1212 487.9709 111.7812 504.6839 129.2912 504.6839 112.6902 507.0669 112.6902 507.0669 135.0882 490.3609 117.6072 490.3609 134.1212"></polygon>
            <polygon id="Stroke-95" stroke="#FEFEFE" stroke-width="0.793" mask="url(#mask-4)" points="487.9709 134.1212 487.9709 111.7812 504.6839 129.2912 504.6839 112.6902 507.0669 112.6902 507.0669 135.0882 490.3609 117.6072 490.3609 134.1212"></polygon>
            <polygon id="Fill-96" fill="#FEFEFE" mask="url(#mask-4)" points="517.216 114.9083 517.216 134.1213 514.825 134.1213 514.825 114.9083 509.655 114.9083 509.655 112.6903 522.442 112.6903 522.442 114.9083"></polygon>
            <polygon id="Stroke-97" stroke="#FEFEFE" stroke-width="0.793" mask="url(#mask-4)" points="517.216 114.9083 517.216 134.1213 514.825 134.1213 514.825 114.9083 509.655 114.9083 509.655 112.6903 522.442 112.6903 522.442 114.9083"></polygon>
            <polygon id="Fill-98" fill="#FEFEFE" mask="url(#mask-4)" points="527.3889 121.3907 538.3549 121.3907 538.3549 112.6907 540.7449 112.6907 540.7449 134.1207 538.3549 134.1207 538.3549 123.6077 527.3889 123.6077 527.3889 134.1207 524.9989 134.1207 524.9989 112.6907 527.3889 112.6907"></polygon>
            <polygon id="Stroke-99" stroke="#FEFEFE" stroke-width="0.793" mask="url(#mask-4)" points="527.3889 121.3907 538.3549 121.3907 538.3549 112.6907 540.7449 112.6907 540.7449 134.1207 538.3549 134.1207 538.3549 123.6077 527.3889 123.6077 527.3889 134.1207 524.9989 134.1207 524.9989 112.6907 527.3889 112.6907"></polygon>
            <polygon id="Fill-100" fill="#FEFEFE" mask="url(#mask-4)" points="545.234 134.121 547.619 134.121 547.619 112.69 545.234 112.69"></polygon>
            <polygon id="Stroke-101" stroke="#FEFEFE" stroke-width="0.793" mask="url(#mask-4)" points="545.234 134.121 547.619 134.121 547.619 112.69 545.234 112.69"></polygon>
            <path d="M563.3889,125.8243 L559.8109,117.2423 L556.1449,125.8243 L563.3889,125.8243 Z M564.3299,128.0413 L555.1789,128.0413 L552.5899,134.1213 L549.9779,134.1213 L559.8669,111.6703 L569.5009,134.1213 L566.8569,134.1213 L564.3299,128.0413 Z" id="Fill-102" fill="#FEFEFE" mask="url(#mask-4)"></path>
            <path d="M563.3889,125.8243 L559.8109,117.2423 L556.1449,125.8243 L563.3889,125.8243 Z M564.3299,128.0413 L555.1789,128.0413 L552.5899,134.1213 L549.9779,134.1213 L559.8669,111.6703 L569.5009,134.1213 L566.8569,134.1213 L564.3299,128.0413 Z" id="Stroke-103" stroke="#FEFEFE" stroke-width="0.793" mask="url(#mask-4)"></path>
            <polygon id="Fill-104" fill="#FEFEFE" mask="url(#mask-4)" points="571.9719 134.1212 571.9719 111.7812 588.6849 129.2912 588.6849 112.6902 591.0679 112.6902 591.0679 135.0882 574.3619 117.6072 574.3619 134.1212"></polygon>
            <polygon id="Stroke-105" stroke="#FEFEFE" stroke-width="0.793" mask="url(#mask-4)" points="571.9719 134.1212 571.9719 111.7812 588.6849 129.2912 588.6849 112.6902 591.0679 112.6902 591.0679 135.0882 574.3619 117.6072 574.3619 134.1212"></polygon>
            <path d="M607.1555,115.6515 L605.2475,116.8715 C604.3585,115.3175 603.1295,114.5435 601.5565,114.5435 C600.5905,114.5435 599.7545,114.8525 599.0545,115.4775 C598.3545,116.1025 598.0035,116.9015 598.0035,117.8675 C598.0035,118.3005 598.0945,118.6975 598.2885,119.0575 C598.4755,119.4225 598.7705,119.7375 599.1675,120.0105 C599.5665,120.2895 599.9035,120.4995 600.1765,120.6485 C600.4515,120.8025 600.8445,120.9895 601.3555,121.2175 L602.7765,121.8425 C603.5915,122.2025 604.2625,122.5435 604.7955,122.8525 C605.3255,123.1685 605.8505,123.5525 606.3745,124.0165 C606.8935,124.4815 607.2815,125.0385 607.5385,125.6825 C607.7925,126.3255 607.9225,127.0575 607.9225,127.8675 C607.9225,129.7245 607.2655,131.2915 605.9595,132.5745 C604.6535,133.8495 603.0615,134.4865 601.1855,134.4865 C599.4835,134.4865 598.0275,133.9865 596.8235,132.9695 C595.6195,131.9555 594.8515,130.6175 594.5075,128.9455 L596.8395,128.2955 C596.9865,129.4105 597.4645,130.3575 598.2565,131.1245 C599.0545,131.8855 600.0095,132.2705 601.1295,132.2705 C602.3035,132.2705 603.3315,131.8685 604.2145,131.0625 C605.0925,130.2575 605.5325,129.2735 605.5325,128.0965 C605.5325,127.6215 605.4525,127.1805 605.2905,126.7715 C605.1295,126.3695 604.9505,126.0415 604.7525,125.7935 C604.5545,125.5465 604.2385,125.2805 603.7985,125.0015 C603.3645,124.7165 603.0235,124.5115 602.7765,124.3875 C602.5285,124.2635 602.1335,124.0785 601.5825,123.8305 L600.2755,123.2665 C598.7615,122.5805 597.6065,121.8425 596.8075,121.0505 C596.0155,120.2525 595.6155,119.1615 595.6155,117.7815 C595.6155,116.1715 596.2005,114.8575 597.3775,113.8425 C598.5545,112.8345 599.9655,112.3255 601.6125,112.3255 C602.8075,112.3255 603.8855,112.6115 604.8515,113.1925 C605.8175,113.7685 606.5855,114.5875 607.1555,115.6515" id="Fill-106" fill="#FEFEFE" mask="url(#mask-4)"></path>
            <path d="M607.1555,115.6515 L605.2475,116.8715 C604.3585,115.3175 603.1295,114.5435 601.5565,114.5435 C600.5905,114.5435 599.7545,114.8525 599.0545,115.4775 C598.3545,116.1025 598.0035,116.9015 598.0035,117.8675 C598.0035,118.3005 598.0945,118.6975 598.2885,119.0575 C598.4755,119.4225 598.7705,119.7375 599.1675,120.0105 C599.5665,120.2895 599.9035,120.4995 600.1765,120.6485 C600.4515,120.8025 600.8445,120.9895 601.3555,121.2175 L602.7765,121.8425 C603.5915,122.2025 604.2625,122.5435 604.7955,122.8525 C605.3255,123.1685 605.8505,123.5525 606.3745,124.0165 C606.8935,124.4815 607.2815,125.0385 607.5385,125.6825 C607.7925,126.3255 607.9225,127.0575 607.9225,127.8675 C607.9225,129.7245 607.2655,131.2915 605.9595,132.5745 C604.6535,133.8495 603.0615,134.4865 601.1855,134.4865 C599.4835,134.4865 598.0275,133.9865 596.8235,132.9695 C595.6195,131.9555 594.8515,130.6175 594.5075,128.9455 L596.8395,128.2955 C596.9865,129.4105 597.4645,130.3575 598.2565,131.1245 C599.0545,131.8855 600.0095,132.2705 601.1295,132.2705 C602.3035,132.2705 603.3315,131.8685 604.2145,131.0625 C605.0925,130.2575 605.5325,129.2735 605.5325,128.0965 C605.5325,127.6215 605.4525,127.1805 605.2905,126.7715 C605.1295,126.3695 604.9505,126.0415 604.7525,125.7935 C604.5545,125.5465 604.2385,125.2805 603.7985,125.0015 C603.3645,124.7165 603.0235,124.5115 602.7765,124.3875 C602.5285,124.2635 602.1335,124.0785 601.5825,123.8305 L600.2755,123.2665 C598.7615,122.5805 597.6065,121.8425 596.8075,121.0505 C596.0155,120.2525 595.6155,119.1615 595.6155,117.7815 C595.6155,116.1715 596.2005,114.8575 597.3775,113.8425 C598.5545,112.8345 599.9655,112.3255 601.6125,112.3255 C602.8075,112.3255 603.8855,112.6115 604.8515,113.1925 C605.8175,113.7685 606.5855,114.5875 607.1555,115.6515 Z" id="Stroke-107" stroke="#FEFEFE" stroke-width="0.793" mask="url(#mask-4)"></path>
            <polygon id="Fill-108" fill="#FEFEFE" mask="url(#mask-4)" points="620.3127 134.1212 620.3127 111.7812 637.0187 129.2912 637.0187 112.6902 639.4087 112.6902 639.4087 135.0882 622.6967 117.6072 622.6967 134.1212"></polygon>
            <polygon id="Stroke-109" stroke="#FEFEFE" stroke-width="0.793" mask="url(#mask-4)" points="620.3127 134.1212 620.3127 111.7812 637.0187 129.2912 637.0187 112.6902 639.4087 112.6902 639.4087 135.0882 622.6967 117.6072 622.6967 134.1212"></polygon>
            <path d="M655.2902,125.8243 L651.7122,117.2423 L648.0472,125.8243 L655.2902,125.8243 Z M656.2312,128.0413 L647.0812,128.0413 L644.4912,134.1213 L641.8802,134.1213 L651.7682,111.6703 L661.4022,134.1213 L658.7582,134.1213 L656.2312,128.0413 Z" id="Fill-110" fill="#FEFEFE" mask="url(#mask-4)"></path>
            <path d="M655.2902,125.8243 L651.7122,117.2423 L648.0472,125.8243 L655.2902,125.8243 Z M656.2312,128.0413 L647.0812,128.0413 L644.4912,134.1213 L641.8802,134.1213 L651.7682,111.6703 L661.4022,134.1213 L658.7582,134.1213 L656.2312,128.0413 Z" id="Stroke-111" stroke="#FEFEFE" stroke-width="0.793" mask="url(#mask-4)"></path>
            <polygon id="Fill-112" fill="#FEFEFE" mask="url(#mask-4)" points="672.542 134.121 674.929 134.121 674.929 112.69 672.542 112.69"></polygon>
            <polygon id="Stroke-113" stroke="#FEFEFE" stroke-width="0.793" mask="url(#mask-4)" points="672.542 134.121 674.929 134.121 674.929 112.69 672.542 112.69"></polygon>
            <polygon id="Fill-114" fill="#FEFEFE" mask="url(#mask-4)" points="679.4182 134.1212 679.4182 111.7812 696.1272 129.2912 696.1272 112.6902 698.5142 112.6902 698.5142 135.0882 681.8052 117.6072 681.8052 134.1212"></polygon>
            <polygon id="Stroke-115" stroke="#FEFEFE" stroke-width="0.793" mask="url(#mask-4)" points="679.4182 134.1212 679.4182 111.7812 696.1272 129.2912 696.1272 112.6902 698.5142 112.6902 698.5142 135.0882 681.8052 117.6072 681.8052 134.1212"></polygon>
            <polygon id="Fill-116" fill="#FEFEFE" mask="url(#mask-4)" points="708.6613 114.9083 708.6613 134.1213 706.2733 134.1213 706.2733 114.9083 701.0993 114.9083 701.0993 112.6903 713.8873 112.6903 713.8873 114.9083"></polygon>
            <polygon id="Stroke-117" stroke="#FEFEFE" stroke-width="0.793" mask="url(#mask-4)" points="708.6613 114.9083 708.6613 134.1213 706.2733 134.1213 706.2733 114.9083 701.0993 114.9083 701.0993 112.6903 713.8873 112.6903 713.8873 114.9083"></polygon>
            <polygon id="Fill-118" fill="#FEFEFE" mask="url(#mask-4)" points="716.3312 134.1212 716.3312 112.6902 727.4442 112.6902 727.4442 114.9082 718.7192 114.9082 718.7192 121.2732 727.1862 121.2732 727.1862 123.4892 718.7192 123.4892 718.7192 131.9052 727.4442 131.9052 727.4442 134.1212"></polygon>
            <polygon id="Stroke-119" stroke="#FEFEFE" stroke-width="0.793" mask="url(#mask-4)" points="716.3312 134.1212 716.3312 112.6902 727.4442 112.6902 727.4442 114.9082 718.7192 114.9082 718.7192 121.2732 727.1862 121.2732 727.1862 123.4892 718.7192 123.4892 718.7192 131.9052 727.4442 131.9052 727.4442 134.1212"></polygon>
            <path d="M733.8928,114.9083 L733.8928,122.6113 L734.6348,122.6113 C735.3898,122.6113 736.0588,122.5603 736.6348,122.4693 C737.2138,122.3763 737.7818,122.2023 738.3408,121.9423 C738.9018,121.6883 739.3268,121.2913 739.6208,120.7653 C739.9138,120.2323 740.0588,119.5703 740.0588,118.7713 C740.0588,118.0903 739.9548,117.5093 739.7498,117.0253 C739.5388,116.5433 739.2868,116.1653 738.9828,115.8913 C738.6788,115.6143 738.2698,115.4033 737.7588,115.2493 C737.2488,115.0993 736.7588,115.0073 736.2938,114.9703 C735.8298,114.9263 735.2668,114.9083 734.6048,114.9083 L733.8928,114.9083 Z M733.8928,124.7173 L733.8928,134.1213 L731.5088,134.1213 L731.5088,112.6903 L734.6048,112.6903 C735.7048,112.6903 736.6878,112.7783 737.5588,112.9523 C738.4308,113.1193 739.2548,113.4163 740.0328,113.8303 C740.8088,114.2463 741.4078,114.8573 741.8238,115.6633 C742.2398,116.4693 742.4508,117.4473 742.4508,118.6043 C742.4508,120.2523 741.9668,121.6143 741.0008,122.6973 C740.0328,123.7753 738.7258,124.3823 737.0758,124.5183 L743.8988,134.1213 L740.9698,134.1213 L734.4928,124.7173 L733.8928,124.7173 Z" id="Fill-120" fill="#FEFEFE" mask="url(#mask-4)"></path>
            <path d="M733.8928,114.9083 L733.8928,122.6113 L734.6348,122.6113 C735.3898,122.6113 736.0588,122.5603 736.6348,122.4693 C737.2138,122.3763 737.7818,122.2023 738.3408,121.9423 C738.9018,121.6883 739.3268,121.2913 739.6208,120.7653 C739.9138,120.2323 740.0588,119.5703 740.0588,118.7713 C740.0588,118.0903 739.9548,117.5093 739.7498,117.0253 C739.5388,116.5433 739.2868,116.1653 738.9828,115.8913 C738.6788,115.6143 738.2698,115.4033 737.7588,115.2493 C737.2488,115.0993 736.7588,115.0073 736.2938,114.9703 C735.8298,114.9263 735.2668,114.9083 734.6048,114.9083 L733.8928,114.9083 Z M733.8928,124.7173 L733.8928,134.1213 L731.5088,134.1213 L731.5088,112.6903 L734.6048,112.6903 C735.7048,112.6903 736.6878,112.7783 737.5588,112.9523 C738.4308,113.1193 739.2548,113.4163 740.0328,113.8303 C740.8088,114.2463 741.4078,114.8573 741.8238,115.6633 C742.2398,116.4693 742.4508,117.4473 742.4508,118.6043 C742.4508,120.2523 741.9668,121.6143 741.0008,122.6973 C740.0328,123.7753 738.7258,124.3823 737.0758,124.5183 L743.8988,134.1213 L740.9698,134.1213 L734.4928,124.7173 L733.8928,124.7173 Z" id="Stroke-121" stroke="#FEFEFE" stroke-width="0.793" mask="url(#mask-4)"></path>
            <polygon id="Fill-122" fill="#FEFEFE" mask="url(#mask-4)" points="747.051 134.1212 747.051 111.7812 763.762 129.2912 763.762 112.6902 766.147 112.6902 766.147 135.0882 749.441 117.6072 749.441 134.1212"></polygon>
            <polygon id="Stroke-123" stroke="#FEFEFE" stroke-width="0.793" mask="url(#mask-4)" points="747.051 134.1212 747.051 111.7812 763.762 129.2912 763.762 112.6902 766.147 112.6902 766.147 135.0882 749.441 117.6072 749.441 134.1212"></polygon>
            <polygon id="Fill-124" fill="#FEFEFE" mask="url(#mask-4)" points="770.6115 134.1212 770.6115 112.6902 781.7195 112.6902 781.7195 114.9082 772.9955 114.9082 772.9955 121.2732 781.4655 121.2732 781.4655 123.4892 772.9955 123.4892 772.9955 131.9052 781.7195 131.9052 781.7195 134.1212"></polygon>
            <polygon id="Stroke-125" stroke="#FEFEFE" stroke-width="0.793" mask="url(#mask-4)" points="770.6115 134.1212 770.6115 112.6902 781.7195 112.6902 781.7195 114.9082 772.9955 114.9082 772.9955 121.2732 781.4655 121.2732 781.4655 123.4892 772.9955 123.4892 772.9955 131.9052 781.7195 131.9052 781.7195 134.1212"></polygon>
            <polygon id="Fill-126" fill="#FEFEFE" mask="url(#mask-4)" points="791.4689 114.9083 791.4689 134.1213 789.0819 134.1213 789.0819 114.9083 783.9109 114.9083 783.9109 112.6903 796.6979 112.6903 796.6979 114.9083"></polygon>
            <polygon id="Stroke-127" stroke="#FEFEFE" stroke-width="0.793" mask="url(#mask-4)" points="791.4689 114.9083 791.4689 134.1213 789.0819 134.1213 789.0819 114.9083 783.9109 114.9083 783.9109 112.6903 796.6979 112.6903 796.6979 114.9083"></polygon>
        </g>
    </g>
</svg>